<svg width="1206" height="734" viewBox="0 0 1206 734" fill="none" xmlns="http://www.w3.org/2000/svg">
<g clip-path="url(#clip0_5416_141)">
<rect width="1206" height="734" fill="white"/>
<rect width="1206" height="734" fill="white"/>
<path d="M844.997 319.572H818.699V513.353H844.997V319.572Z" fill="url(#paint0_linear_5416_141)"/>
<path d="M921.487 195.651H884.438V517.304H921.487V195.651Z" fill="url(#paint1_linear_5416_141)"/>
<path d="M952.884 496.207H787.291C776.581 496.207 767.898 504.892 767.898 515.604V521.632C767.898 532.344 776.581 541.029 787.291 541.029H952.884C963.593 541.029 972.275 532.344 972.275 521.632V515.604C972.275 504.892 963.593 496.207 952.884 496.207Z" fill="#241D50"/>
<path d="M763.149 363.068H977.034C977.823 363.068 978.604 363.224 979.332 363.525C980.06 363.827 980.721 364.269 981.279 364.827C981.837 365.384 982.278 366.046 982.58 366.775C982.882 367.504 983.037 368.284 983.037 369.072V379.486C983.037 381.075 982.406 382.6 981.283 383.723C980.159 384.848 978.635 385.479 977.047 385.479H763.137C761.549 385.479 760.025 384.848 758.901 383.723C757.778 382.6 757.146 381.075 757.146 379.486V369.072C757.146 368.284 757.302 367.504 757.603 366.775C757.905 366.046 758.347 365.384 758.904 364.827C759.462 364.269 760.124 363.827 760.852 363.525C761.58 363.224 762.361 363.068 763.149 363.068Z" fill="url(#paint2_linear_5416_141)"/>
<path d="M955.955 182H850.999C845.327 182 840.729 186.599 840.729 192.273V195.451C840.729 201.125 845.327 205.724 850.999 205.724H955.955C961.627 205.724 966.225 201.125 966.225 195.451V192.273C966.225 186.599 961.627 182 955.955 182Z" fill="#241D50"/>
<path d="M856.182 304.115C856.201 309.394 854.796 314.58 852.113 319.126H810.457C807.78 314.578 806.375 309.393 806.389 304.115C806.389 288.952 817.527 276.65 831.279 276.65C845.032 276.65 856.182 288.952 856.182 304.115Z" fill="#353063"/>
<path d="M859.078 252.914H802.028C799.178 252.914 796.354 253.477 793.721 254.569C791.088 255.662 788.696 257.263 786.682 259.282C784.669 261.3 783.073 263.696 781.986 266.332C780.9 268.968 780.344 271.794 780.35 274.645V299.835C780.35 305.586 782.634 311.101 786.7 315.167C790.765 319.234 796.279 321.519 802.028 321.519H859.078C864.828 321.519 870.342 319.234 874.407 315.167C878.472 311.101 880.756 305.586 880.756 299.835V274.645C880.763 271.794 880.206 268.968 879.119 266.332C878.033 263.696 876.437 261.3 874.424 259.282C872.41 257.263 870.018 255.662 867.385 254.569C864.752 253.477 861.929 252.914 859.078 252.914ZM852.114 319.126H810.458C807.781 314.578 806.376 309.393 806.39 304.115C806.39 288.952 817.528 276.65 831.28 276.65C845.033 276.65 856.183 288.952 856.183 304.115C856.202 309.394 854.797 314.58 852.114 319.126Z" fill="#241D50"/>
<path d="M1079.07 477.117C1080.12 473.655 1078 455.154 1036.1 446.61C994.197 438.067 947.266 431.614 916.852 436.818C881.394 442.949 878.173 472.235 882.47 484.441C886.767 496.646 1068.33 512.478 1079.07 477.117Z" fill="url(#paint3_linear_5416_141)"/>
<path d="M931.098 458.673C964.091 464.755 1015.3 490.693 1052.57 472.521C1102.25 448.288 1094.53 523.298 1072.44 534.84C1050.35 546.382 908.929 549.373 891.35 537.146C874.782 525.604 872.217 484.255 884.701 464.441C893.644 450.301 923.281 457.231 931.098 458.673Z" fill="url(#paint4_linear_5416_141)"/>
<path d="M1000.76 425.496L1000.76 425.496C1010.52 424.665 1022.29 428.519 1030.12 435.271C1034.03 438.641 1036.92 442.711 1038.11 447.249C1039.3 451.775 1038.8 456.811 1035.85 462.157C1029.95 472.82 1017.74 476.937 1003.98 476.948C990.239 476.96 975.087 472.867 963.539 467.288C952.045 461.735 944.996 453.038 941.878 445.661C940.316 441.965 939.757 438.641 940.081 436.227C940.242 435.023 940.62 434.076 941.169 433.415C941.711 432.765 942.44 432.365 943.38 432.276L943.39 432.275L943.401 432.274L943.333 431.778C943.401 432.274 943.401 432.274 943.401 432.274L943.402 432.274L943.407 432.273L943.428 432.27L943.509 432.259L943.827 432.216C944.107 432.178 944.52 432.123 945.053 432.051C946.119 431.909 947.664 431.703 949.58 431.45C953.412 430.946 958.728 430.256 964.662 429.513C976.532 428.027 990.87 426.333 1000.76 425.496Z" fill="white" stroke="#D7D7D7"/>
<path d="M1024.7 520.686C1003.28 515.083 1036.75 489.052 1039.98 464.298C1043.21 439.544 1026.18 443.891 1026.18 443.891C1040.32 460.943 1007.08 488.017 997.733 504.84C988.384 521.664 1014.2 537.217 1030.59 537.388C1046.98 537.56 1046.12 526.289 1024.7 520.686Z" fill="white"/>
<path d="M943.733 502.413C954.657 508.48 945.514 475.468 959.631 469.38C969.828 464.976 960.643 451.807 960.643 451.807C960.643 451.807 918.742 488.538 943.733 502.413Z" fill="white"/>
<path d="M963.857 413.723C963.924 413.872 963.97 413.983 963.998 414.058L963.955 414.251L964.2 414.446C970.36 419.363 973.054 424.356 973.5 429.089C973.947 433.832 972.147 438.414 969.12 442.522C966.094 446.629 961.866 450.226 957.536 452.974C953.213 455.717 948.824 457.593 945.479 458.293C937.308 459.17 931.984 458.594 928.31 457.275C924.652 455.961 922.589 453.897 920.961 451.695L920.961 451.695C919.041 449.102 918.238 447.516 917.911 446.603C917.748 446.148 917.708 445.871 917.7 445.728C917.698 445.674 917.7 445.64 917.701 445.622L917.794 445.398L917.626 445.171L909.88 434.707L909.88 434.707L909.877 434.703C909.735 434.515 909.643 434.292 909.611 434.057C909.578 433.823 909.606 433.584 909.692 433.362C909.778 433.142 909.918 432.946 910.1 432.795L910.101 432.795C910.282 432.644 910.499 432.542 910.732 432.498C912.839 432.106 915.715 431.598 918.19 431.277C919.429 431.116 920.555 431.004 921.429 430.975C921.866 430.96 922.228 430.967 922.502 430.996C922.639 431.011 922.745 431.03 922.823 431.051C922.899 431.071 922.928 431.088 922.931 431.089C922.931 431.09 922.932 431.09 922.931 431.09L923.433 431.438L923.676 430.878C925.564 426.524 929.425 423.264 933.296 420.943C937.159 418.627 940.974 417.281 942.688 416.73L942.857 416.675L942.954 416.526L954.099 399.396L954.1 399.394C954.228 399.196 954.406 399.034 954.616 398.924C954.826 398.815 955.06 398.763 955.296 398.773L955.296 398.773C955.533 398.782 955.761 398.853 955.962 398.979L955.963 398.979C956.162 399.104 956.327 399.279 956.439 399.488C957.739 401.918 959.666 405.529 961.257 408.576C962.053 410.101 962.764 411.481 963.27 412.5C963.523 413.011 963.723 413.427 963.857 413.723Z" fill="white" stroke="#D7D7D7"/>
<path d="M952.341 438.352C952.273 438.343 952.204 438.348 952.138 438.366C952.072 438.384 952.01 438.416 951.956 438.458C951.902 438.501 951.858 438.554 951.825 438.614C951.792 438.674 951.771 438.74 951.764 438.809C951.764 438.852 951.279 443.092 949.142 444.005C948.208 444.412 947.004 444.134 945.664 443.17C945.549 443.05 945.395 442.975 945.23 442.956C945.118 442.95 945.009 442.98 944.916 443.042C944.823 443.103 944.752 443.192 944.714 443.297C944.676 443.401 944.672 443.516 944.703 443.623C944.734 443.73 944.799 443.823 944.887 443.891L945.001 443.97C945.272 444.284 945.878 445.447 945.564 446.154C945.308 446.739 944.317 446.96 942.778 446.768C942.642 446.751 942.505 446.79 942.398 446.874C942.289 446.958 942.219 447.081 942.201 447.217C942.185 447.354 942.222 447.492 942.306 447.601C942.391 447.71 942.514 447.783 942.65 447.803C943.242 447.869 943.839 447.869 944.431 447.803C944.793 447.791 945.148 447.703 945.474 447.545C945.8 447.386 946.087 447.16 946.32 446.882C946.514 446.58 946.637 446.239 946.68 445.882C946.723 445.526 946.685 445.165 946.569 444.826C947.034 445.049 947.54 445.174 948.056 445.189C948.572 445.205 949.085 445.113 949.562 444.919C952.249 443.727 952.776 439.087 952.797 438.887C952.804 438.757 952.759 438.629 952.675 438.529C952.591 438.43 952.471 438.366 952.341 438.352Z" fill="#2A2460"/>
<path fill-rule="evenodd" clip-rule="evenodd" d="M942.997 440.386C942.898 440.386 947.109 434.134 944.957 443.463C944.957 443.427 935.886 441.957 942.997 440.386Z" fill="url(#paint5_linear_5416_141)"/>
<path opacity="0.43" fill-rule="evenodd" clip-rule="evenodd" d="M960.059 432.977C968.61 422.199 978.393 420.129 979.056 420.037C968.275 419.687 960.059 432.977 960.059 432.977Z" fill="#2A2460"/>
<path opacity="0.43" fill-rule="evenodd" clip-rule="evenodd" d="M960.812 433.755C971.722 426.418 981.264 427.374 981.891 427.503C972.086 424.034 960.812 433.755 960.812 433.755Z" fill="#2A2460"/>
<path opacity="0.43" fill-rule="evenodd" clip-rule="evenodd" d="M921.913 460.229C921.842 460.229 925.156 453.677 934.555 449.901C934.583 449.901 923.894 452.785 921.913 460.229Z" fill="#2A2460"/>
<path opacity="0.43" fill-rule="evenodd" clip-rule="evenodd" d="M926.396 463.705C926.339 463.748 927.457 456.746 934.947 450.579C934.925 450.579 926.032 456.282 926.396 463.705Z" fill="#2A2460"/>
<path opacity="0.13" fill-rule="evenodd" clip-rule="evenodd" d="M955.476 403.113C952.853 403.413 948.898 413.677 948.898 413.677C952.428 412.608 956.194 412.608 959.723 413.677C959.723 413.677 958.098 402.82 955.476 403.113Z" fill="#2A2460"/>
<path opacity="0.13" fill-rule="evenodd" clip-rule="evenodd" d="M914.494 434.526C912.969 435.518 917.972 440.065 917.972 440.065C917.972 440.065 918.684 435.49 921.777 433.912C921.755 433.912 916.012 433.541 914.494 434.526Z" fill="#2A2460"/>
<path fill-rule="evenodd" clip-rule="evenodd" d="M528.156 406.082V406.346C528.181 406.307 528.194 406.261 528.194 406.214C528.194 406.168 528.181 406.122 528.156 406.082Z" fill="#241D50"/>
<path fill-rule="evenodd" clip-rule="evenodd" d="M528.135 406.347C526.774 408.381 492.278 402.449 492.278 402.449C492.278 402.449 473.337 435.204 489.349 470.258C500.323 493.099 509.537 508.002 508.183 533.727C497.772 535.868 498.634 543.391 505.211 543.091C506.444 543.091 512.451 543.198 513.299 543.127C521.33 542.413 516.15 509.58 514.275 499.316C513.876 497.417 513.712 496.268 513.712 496.268C513.712 496.268 513.933 497.403 514.275 499.316C515.872 506.867 521.209 526.375 534.94 533.513C533.921 532.949 528.598 533.306 524.964 535.004C518.073 538.216 513.363 544.155 528.37 543.091C547.069 543.52 565.076 543.056 565.076 543.056C565.076 543.056 614.601 516.482 571.995 472.842C550.446 450.772 523.297 463.227 528.135 406.347Z" fill="#241D50"/>
<path fill-rule="evenodd" clip-rule="evenodd" d="M514.276 499.344C513.934 497.431 513.713 496.296 513.713 496.296C513.713 496.296 513.877 497.446 514.276 499.344Z" fill="#241D50"/>
<path d="M620.501 417.267C597.449 424.405 590.722 458.823 586.219 508.338C585.577 515.347 582.335 536.539 560.273 542.156C560.352 542.335 560.423 542.506 560.494 542.685C591.1 545.54 604.326 516.817 606.207 491.628C609.62 454.119 614.366 429.102 634.611 435.597C643.418 439.501 648.121 409.166 620.501 417.267Z" fill="#2A2460"/>
<path fill-rule="evenodd" clip-rule="evenodd" d="M551.344 378.838C545.401 379.516 535.105 380.865 534.007 382.207C525.15 371.786 507.42 370.893 502.325 370.865L480.456 352.492C480.111 352.2 479.696 352.003 479.253 351.921C478.809 351.839 478.352 351.875 477.926 352.024C477.5 352.173 477.12 352.431 476.823 352.772C476.528 353.113 476.326 353.526 476.238 353.97C474.741 361.521 471.82 376.418 472.062 376.86C446.886 413.591 496.154 430.651 515.58 428.866C538.276 424.519 543.584 416.975 546.221 409.594C549.264 401.029 548.024 399.516 548.024 399.516L554.116 382.385C554.27 381.962 554.314 381.506 554.243 381.061C554.172 380.616 553.99 380.196 553.712 379.841C553.435 379.486 553.072 379.208 552.658 379.033C552.244 378.857 551.792 378.79 551.344 378.838Z" fill="#2A2460"/>
<path d="M514.418 411.671C512.444 412.563 511.033 412.671 510.449 411.992C509.736 411.179 510.085 409.38 510.32 408.845L510.434 408.695C510.531 408.57 510.583 408.416 510.583 408.259C510.583 408.102 510.531 407.949 510.434 407.824C510.345 407.691 510.214 407.591 510.061 407.542C509.909 407.493 509.744 407.496 509.594 407.553C509.386 407.649 509.215 407.813 509.109 408.017C507.684 409.865 506.209 410.715 504.834 410.551C501.563 410.187 499.19 404.769 499.19 404.698C499.152 404.61 499.098 404.531 499.03 404.464C498.962 404.397 498.881 404.344 498.793 404.309C498.705 404.274 498.61 404.256 498.515 404.257C498.42 404.258 498.326 404.278 498.239 404.316C498.151 404.353 498.072 404.408 498.006 404.476C497.939 404.544 497.886 404.625 497.851 404.713C497.815 404.801 497.798 404.896 497.799 404.992C497.8 405.087 497.82 405.181 497.857 405.269C497.964 405.526 500.565 411.507 504.634 412C505.349 412.065 506.071 411.981 506.753 411.751C507.434 411.521 508.059 411.151 508.589 410.665C508.575 411.164 508.674 411.661 508.875 412.117C509.078 412.574 509.379 412.98 509.758 413.306C510.181 413.583 510.659 413.767 511.158 413.847C511.658 413.927 512.169 413.9 512.658 413.77C513.472 413.601 514.263 413.337 515.016 412.985C515.105 412.947 515.184 412.893 515.251 412.824C515.317 412.755 515.37 412.674 515.404 412.585C515.439 412.496 515.455 412.4 515.452 412.304C515.449 412.209 515.427 412.115 515.387 412.028C515.348 411.939 515.293 411.859 515.222 411.793C515.153 411.726 515.069 411.675 514.979 411.641C514.888 411.608 514.792 411.593 514.695 411.598C514.599 411.603 514.505 411.628 514.418 411.671Z" fill="white"/>
<path fill-rule="evenodd" clip-rule="evenodd" d="M511.517 403.192C511.66 403.192 503.487 396.518 510.149 408.095C510.149 408.095 521.672 402.435 511.517 403.192Z" fill="url(#paint6_linear_5416_141)"/>
<path fill-rule="evenodd" clip-rule="evenodd" d="M455.096 390.772C456.008 390.594 469.889 389.402 485.737 400.308C485.737 400.308 469.362 385.94 455.096 390.772Z" fill="white"/>
<path fill-rule="evenodd" clip-rule="evenodd" d="M454.34 401.907C455.124 401.471 467.487 396.297 485.038 401.657C485.038 401.657 466.026 393.277 454.34 401.907Z" fill="white"/>
<path fill-rule="evenodd" clip-rule="evenodd" d="M526.682 412.506C540.77 413.713 547.874 421.15 547.767 421.143C542.124 412 526.682 412.506 526.682 412.506Z" fill="white"/>
<path fill-rule="evenodd" clip-rule="evenodd" d="M526.461 413.563C538.953 418.745 543.285 427.653 543.193 427.617C540.67 417.546 526.461 413.563 526.461 413.563Z" fill="white"/>
<path opacity="0.21" fill-rule="evenodd" clip-rule="evenodd" d="M479.716 358.545C476.089 359.223 478.333 374.391 478.333 374.391C482.609 371.525 487.633 369.986 492.777 369.965C492.777 369.965 483.336 357.874 479.716 358.545Z" fill="white"/>
<path opacity="0.21" fill-rule="evenodd" clip-rule="evenodd" d="M547.226 383.784C544.796 383.07 537.25 385.925 537.25 385.925C542.017 386.768 544.832 392.599 544.832 392.599C544.832 392.599 549.663 384.484 547.226 383.784Z" fill="white"/>
<path d="M682.838 541.821C676.354 541.821 669.734 539.837 664.061 537.774L662.023 537.024C653.009 533.705 643.681 530.279 634.774 532.628C631.879 533.498 629.08 534.662 626.422 536.104C624.748 536.939 623.023 537.795 621.249 538.523C616.974 540.265 610.831 541.714 605.672 538.752C605.521 538.666 605.388 538.551 605.281 538.413C605.175 538.276 605.097 538.119 605.05 537.952C605.005 537.784 604.993 537.609 605.014 537.436C605.036 537.263 605.092 537.097 605.178 536.947C605.265 536.795 605.38 536.663 605.517 536.557C605.655 536.45 605.812 536.373 605.98 536.328C606.148 536.283 606.322 536.271 606.495 536.293C606.667 536.316 606.833 536.373 606.983 536.46C611.444 539.023 617.209 537.317 620.251 536.075C621.933 535.361 623.615 534.548 625.24 533.741C628.059 532.218 631.027 530.989 634.097 530.072C643.81 527.51 653.529 531.086 662.928 534.548L664.959 535.261C673.81 538.488 685.097 541.528 693.819 536.389C693.969 536.286 694.138 536.216 694.317 536.181C694.495 536.147 694.679 536.15 694.856 536.19C695.033 536.229 695.201 536.306 695.348 536.413C695.494 536.52 695.618 536.656 695.71 536.813C695.802 536.969 695.86 537.144 695.882 537.324C695.904 537.505 695.889 537.688 695.837 537.863C695.786 538.037 695.699 538.199 695.582 538.338C695.465 538.478 695.321 538.592 695.159 538.673C691.411 540.818 687.154 541.906 682.838 541.821Z" fill="url(#paint7_linear_5416_141)"/>
<path d="M713.385 534.488C723.734 524.121 723.734 507.314 713.385 496.947C703.036 486.581 686.256 486.581 675.907 496.947C665.557 507.314 665.557 524.121 675.907 534.488C686.256 544.854 703.036 544.854 713.385 534.488Z" fill="url(#paint8_linear_5416_141)"/>
<path d="M345.393 513.969C345.393 513.969 384.514 500.037 440.046 513.006C382.975 532.792 349.711 514.041 345.393 513.969Z" fill="url(#paint9_linear_5416_141)"/>
<path d="M340.504 541.029H446.886C447.54 540.266 447.982 539.343 448.166 538.354C448.35 537.365 448.27 536.345 447.934 535.397L440.045 513.006C440.045 513.006 410.366 522.877 345.392 513.969L338.437 534.669C338.057 535.811 338.052 537.045 338.424 538.19C338.796 539.335 339.525 540.33 340.504 541.029Z" fill="url(#paint10_linear_5416_141)"/>
<path opacity="0.42" d="M1010.49 581H627.081C625.859 580.996 624.688 580.506 623.824 579.637C622.96 578.767 622.473 577.59 622.469 576.36C622.473 575.131 622.96 573.954 623.824 573.084C624.688 572.215 625.859 571.725 627.081 571.721H1010.49C1011.72 571.725 1012.89 572.216 1013.75 573.085C1014.61 573.954 1015.11 575.131 1015.11 576.36C1015.11 577.59 1014.61 578.767 1013.75 579.636C1012.89 580.505 1011.72 580.996 1010.49 581Z" fill="url(#paint11_linear_5416_141)"/>
<path d="M1174.01 550.308H283.985C282.683 550.321 281.429 549.804 280.496 548.872C279.562 547.939 279.025 546.664 279 545.325C279.018 543.981 279.552 542.699 280.487 541.76C281.421 540.821 282.679 540.301 283.985 540.315H1174.01C1175.32 540.306 1176.57 540.827 1177.5 541.765C1178.44 542.704 1178.96 543.984 1178.99 545.325C1178.96 546.661 1178.42 547.934 1177.5 548.866C1176.56 549.799 1175.32 550.317 1174.01 550.308Z" fill="url(#paint12_linear_5416_141)"/>
</g>
<defs>
<linearGradient id="paint0_linear_5416_141" x1="818.699" y1="416.462" x2="844.997" y2="416.462" gradientUnits="userSpaceOnUse">
<stop stop-color="#82CDE4"/>
<stop offset="0.23" stop-color="#69C2D8"/>
<stop offset="0.72" stop-color="#28A6BA"/>
<stop offset="1" stop-color="#0094A7"/>
</linearGradient>
<linearGradient id="paint1_linear_5416_141" x1="884.701" y1="387.924" x2="921.756" y2="387.924" gradientUnits="userSpaceOnUse">
<stop stop-color="#7BCBE2"/>
<stop offset="1" stop-color="#0096AB"/>
</linearGradient>
<linearGradient id="paint2_linear_5416_141" x1="757.146" y1="363.299" x2="983.037" y2="363.299" gradientUnits="userSpaceOnUse">
<stop stop-color="#80CDE4"/>
<stop offset="1" stop-color="#0095A9"/>
</linearGradient>
<linearGradient id="paint3_linear_5416_141" x1="880.988" y1="466.86" x2="1079.26" y2="466.86" gradientUnits="userSpaceOnUse">
<stop stop-color="#E71A80"/>
<stop offset="1" stop-color="#EC6588"/>
</linearGradient>
<linearGradient id="paint4_linear_5416_141" x1="876.863" y1="500.358" x2="1089.61" y2="500.358" gradientUnits="userSpaceOnUse">
<stop stop-color="#EC6588"/>
<stop offset="1" stop-color="#E71A80"/>
</linearGradient>
<linearGradient id="paint5_linear_5416_141" x1="-10740.6" y1="2604.76" x2="-10782.3" y2="2617.35" gradientUnits="userSpaceOnUse">
<stop stop-color="#EC6588"/>
<stop offset="1" stop-color="#E71A80"/>
</linearGradient>
<linearGradient id="paint6_linear_5416_141" x1="507.534" y1="404.683" x2="515.7" y2="404.683" gradientUnits="userSpaceOnUse">
<stop stop-color="#EC6588"/>
<stop offset="1" stop-color="#E71A80"/>
</linearGradient>
<linearGradient id="paint7_linear_5416_141" x1="19827.9" y1="3776.99" x2="31410.7" y2="3776.99" gradientUnits="userSpaceOnUse">
<stop stop-color="#EC6588"/>
<stop offset="1" stop-color="#E71A80"/>
</linearGradient>
<linearGradient id="paint8_linear_5416_141" x1="668.152" y1="515.717" x2="721.147" y2="515.717" gradientUnits="userSpaceOnUse">
<stop stop-color="#E71A80"/>
<stop offset="1" stop-color="#EC6588"/>
</linearGradient>
<linearGradient id="paint9_linear_5416_141" x1="345.376" y1="514.008" x2="439.973" y2="515.897" gradientUnits="userSpaceOnUse">
<stop stop-color="#82CDE4"/>
<stop offset="0.23" stop-color="#69C2D8"/>
<stop offset="0.72" stop-color="#28A6BA"/>
<stop offset="1" stop-color="#0094A7"/>
</linearGradient>
<linearGradient id="paint10_linear_5416_141" x1="338.276" y1="526.126" x2="448.385" y2="528.325" gradientUnits="userSpaceOnUse">
<stop stop-color="#0094A7"/>
<stop offset="0.28" stop-color="#28A6BA"/>
<stop offset="0.77" stop-color="#69C2D8"/>
<stop offset="1" stop-color="#82CDE4"/>
</linearGradient>
<linearGradient id="paint11_linear_5416_141" x1="622.469" y1="576.36" x2="1015.11" y2="576.36" gradientUnits="userSpaceOnUse">
<stop stop-color="#EC6588"/>
<stop offset="1" stop-color="#E71A80"/>
</linearGradient>
<linearGradient id="paint12_linear_5416_141" x1="279" y1="545.313" x2="1179" y2="545.313" gradientUnits="userSpaceOnUse">
<stop stop-color="#A775B0"/>
<stop offset="1" stop-color="#7E468E"/>
</linearGradient>
<clipPath id="clip0_5416_141">
<rect width="1206" height="734" fill="white"/>
</clipPath>
</defs>
</svg>
