<svg width="444" height="396" viewBox="0 0 444 396" fill="none" xmlns="http://www.w3.org/2000/svg">
<path fill-rule="evenodd" clip-rule="evenodd" d="M208.695 56.8795C246.049 60.728 277.269 18.5183 314.424 23.9621C354.642 29.8546 408.577 47.3604 416.192 87.2809C424.908 132.97 360.48 161.896 349.352 207.058C341.951 237.093 381.496 271.149 364.515 297.005C347.174 323.408 301.532 304.668 274.503 321.021C246.572 337.919 239.721 381.12 208.695 391.275C177.115 401.61 138.399 394.591 112.218 374.132C86.287 353.869 90.6578 313.163 73.1101 285.325C54.5729 255.917 17.3165 240.223 6.90262 207.058C-4.58641 170.469 -1.19344 129.735 13.0769 94.138C28.3055 56.1507 49.3806 8.45663 89.5897 0.798173C133.446 -7.55488 164.285 52.3041 208.695 56.8795Z" fill="#F9EAEF" fill-opacity="0.2"/>
<g opacity="0.2">
<path d="M201.412 129.432C197.061 130.45 194.345 131.901 191.414 134.833C188.143 138.073 186.013 141.807 184.871 146.281C184.285 148.627 184.347 154.768 184.964 157.699C185.242 158.965 185.581 160.816 185.674 161.773L185.89 163.501L184.409 163.717C175.799 164.92 167.652 167.883 161.171 172.203C158.024 174.302 153.426 178.529 151.698 180.875C150.926 181.924 150.463 182.325 150.216 182.109C149.383 181.399 144.816 179.887 142.224 179.393C138.891 178.807 137.718 178.961 135.774 180.196C134.139 181.245 132.719 183.745 132.102 186.645C131.516 189.484 131.917 198.31 132.873 203.556C133.583 207.445 135.651 216.147 136.361 218.184C136.607 218.832 136.299 219.665 134.602 222.967L132.596 226.979L130.898 226.763C128.646 226.516 123.06 226.454 122.412 226.701C121.641 227.009 120.962 228.614 121.178 229.602C121.548 231.299 122.227 231.546 126.609 231.793C128.831 231.916 130.713 232.07 130.775 232.163C130.868 232.225 130.775 232.688 130.59 233.181C130.034 234.57 129.047 240.927 129.047 242.933C129.047 244.723 129.016 244.754 128.059 245.093C127.504 245.309 125.838 246.05 124.387 246.759C121.733 248.117 121.023 248.858 121.023 250.308C121.023 251.111 122.628 252.746 123.43 252.746C123.801 252.746 125.22 252.191 126.609 251.512C129.325 250.216 129.633 250.247 129.664 251.82C129.695 252.252 130.22 254.104 130.837 255.986L131.979 259.35L129.325 262.004C127.442 263.886 126.424 265.183 125.714 266.664C121.949 274.471 123.832 280.674 131.053 284.254C134.879 286.167 138.49 286.784 145.248 286.815C151.729 286.815 153.796 286.383 158.61 284.038L161.511 282.649L165.091 283.575C174.318 285.951 181.508 286.815 192.154 286.815C202.801 286.815 209.991 285.951 219.218 283.575L222.798 282.649L225.698 284.038C230.513 286.383 232.58 286.815 239.061 286.815C245.788 286.784 249.275 286.167 253.194 284.284C260.446 280.736 262.359 274.502 258.595 266.664C257.885 265.183 256.866 263.886 254.953 261.973L252.268 259.288L252.886 257.807C253.194 256.974 253.811 254.999 254.213 253.394C254.614 251.79 255.015 250.432 255.077 250.37C255.138 250.277 256.311 250.802 257.7 251.481C259.057 252.191 260.477 252.746 260.847 252.746C261.65 252.746 263.285 251.142 263.285 250.308C263.285 248.858 262.575 248.117 259.921 246.759C258.471 246.05 256.805 245.309 256.28 245.093C255.293 244.754 255.262 244.723 255.262 242.933C255.262 240.927 254.274 234.57 253.719 233.181C253.534 232.688 253.441 232.225 253.534 232.163C253.595 232.07 255.478 231.916 257.7 231.793C262.082 231.546 262.761 231.299 263.131 229.602C263.347 228.614 262.668 227.009 261.896 226.701C261.248 226.454 255.663 226.516 253.41 226.763L251.713 226.979L249.738 222.998L247.794 219.017L248.905 214.974C253.657 197.57 253.935 185.349 249.584 180.998C247.794 179.208 246.096 178.776 242.887 179.27C240.295 179.671 237.055 180.659 234.987 181.708L233.691 182.387L232.611 180.875C230.852 178.499 226.192 174.24 223.075 172.203C217.798 168.685 210.824 165.784 204.591 164.55L201.721 163.964L201.381 160.6C201.165 158.749 200.795 156.064 200.486 154.613C199.9 151.713 200.023 149.984 200.918 148.195C201.721 146.59 203.449 145.14 204.807 144.862C206.72 144.522 210.022 145.695 213.231 147.886C215.206 149.244 216.626 149.738 218.57 149.738C224.433 149.738 228.075 143.72 225.482 138.381C224.834 137.054 224.155 136.314 222.582 135.141C219.959 133.197 215.021 130.728 212.059 129.926C209.065 129.093 203.912 128.846 201.412 129.432ZM211.719 135.357C214.404 136.252 218.662 138.597 220.175 140.017C221.193 141.035 221.286 142.455 220.36 143.627C219.434 144.8 217.86 144.738 216.039 143.411C213.941 141.93 209.991 140.171 207.893 139.77C203.048 138.875 198.943 140.881 196.505 145.325C194.685 148.688 194.438 151.095 195.364 156.002C195.703 157.699 196.073 160.014 196.166 161.156L196.382 163.254H193.759H191.136L190.951 161.464C190.827 160.508 190.457 158.162 190.087 156.311C188.976 150.293 189.809 145.664 192.802 141.251C197.123 134.925 203.973 132.796 211.719 135.357ZM199.19 168.963C211.071 170.506 221.44 175.721 227.828 183.343L229.031 184.794L226.779 186.121C225.575 186.831 222.921 188.528 220.915 189.855L217.274 192.293L215.052 191.398C207.275 188.188 199.375 186.831 190.148 187.108C182.619 187.324 176.231 188.62 169.75 191.213L167.066 192.262L164.196 190.318C162.591 189.238 159.937 187.54 158.302 186.553L155.308 184.763L156.203 183.652C158.579 180.659 162.313 177.573 166.387 175.166C175.429 169.796 187.803 167.482 199.19 168.963ZM142.532 184.856C143.952 185.195 145.958 185.843 147.007 186.337C149.97 187.695 156.666 191.614 161.573 194.885C164.288 196.706 166.263 197.817 166.757 197.817C167.189 197.817 168.578 197.384 169.812 196.86C177.805 193.434 185.118 192.077 193.852 192.354C201.474 192.601 206.535 193.65 213.447 196.459C215.33 197.199 217.243 197.817 217.737 197.817C218.292 197.817 219.712 197.045 221.872 195.533C232.858 187.972 243.165 183.189 245.664 184.516C247.238 185.38 247.855 191.922 246.961 198.742C246.374 203.063 244.893 209.944 243.628 214.265C241.992 219.85 241.992 219.788 243.813 222.998C244.646 224.51 245.572 226.238 245.819 226.855L246.282 227.935L242.702 228.984C238.598 230.157 231.809 233.397 230.142 234.94C228.97 236.051 228.784 236.884 229.402 238.026C230.389 239.909 231.685 239.909 235.08 237.965C239.307 235.527 247.578 232.533 248.195 233.212C248.72 233.829 250.355 242.964 249.985 243.334C249.923 243.396 248.534 243.242 246.93 242.995C243.257 242.47 237.086 242.1 236.036 242.377C235.172 242.593 234.277 243.951 234.277 245.031C234.277 245.402 234.648 246.081 235.141 246.543C235.944 247.346 236.191 247.408 239.678 247.593C243.35 247.809 249.337 248.58 249.676 248.889C249.892 249.136 249.182 252.499 248.38 254.845C247.67 257.036 247.979 256.943 244.615 256.017C242.208 255.338 236.962 255.308 234.432 255.986C225.236 258.363 217.953 266.972 218.632 274.625C218.755 275.736 218.909 277.033 219.002 277.465C219.218 278.236 219.156 278.267 215.546 279.069C207.09 281.013 201.782 281.569 192.154 281.569C182.526 281.569 177.218 281.013 168.763 279.069C165.152 278.267 165.091 278.236 165.307 277.465C165.399 277.033 165.554 275.736 165.677 274.625C166.356 266.88 159.196 258.455 149.877 255.986C147.377 255.308 142.131 255.338 139.693 256.017C136.422 256.912 136.638 256.974 136.083 255.308C135.404 253.363 134.602 250.185 134.602 249.444C134.602 248.92 134.941 248.765 136.7 248.488C139.786 247.932 144.075 247.5 146.266 247.5C148.025 247.5 148.334 247.408 149.136 246.605C149.63 246.111 150.031 245.402 150.031 245.031C150.031 243.951 149.136 242.593 148.272 242.377C147.223 242.1 141.051 242.47 137.379 242.995C135.774 243.242 134.386 243.396 134.324 243.334C133.954 242.964 135.589 233.829 136.114 233.212C136.731 232.533 145.001 235.527 149.229 237.965C152.623 239.909 153.92 239.909 154.907 238.026C155.925 236.144 154.845 234.879 150.124 232.472C146.482 230.589 142.656 229.108 139.632 228.367L138.027 227.997L138.49 226.886C138.737 226.238 139.632 224.541 140.465 223.059C141.329 221.547 142.008 219.974 142.008 219.511C142.008 219.017 141.452 216.702 140.743 214.326C139.354 209.45 137.904 202.538 137.348 198.063C136.854 193.805 137.101 187.17 137.811 185.781C138.768 183.992 138.86 183.961 142.532 184.856ZM149.136 261.263C155.864 263.238 161.357 269.935 160.4 275.058C159.999 277.187 156.635 279.872 153.426 280.612L152.654 280.797V276.817C152.654 273.052 152.623 272.805 151.914 272.064C150.864 270.953 149.198 270.953 148.149 272.064C147.501 272.774 147.408 273.144 147.316 276.138C147.192 280.489 147.13 280.767 145.865 281.353C144.97 281.785 144.693 281.785 143.829 281.445C142.409 280.859 142.008 279.594 142.008 275.829C142.008 273.021 141.946 272.62 141.329 271.972C140.372 270.953 138.644 271.015 137.657 272.064C136.947 272.805 136.916 273.052 136.916 276.817V280.797L136.145 280.612C132.873 279.872 129.602 277.279 129.17 275.119C128.615 272.126 129.973 268.762 132.873 265.831C136.33 262.374 140.033 260.8 144.662 260.77C146.328 260.77 148.118 260.955 149.136 261.263ZM243.875 261.263C249.522 262.93 254.675 268.114 255.169 272.65C255.416 274.811 255.046 276.138 253.688 277.588C252.577 278.792 250.046 280.18 248.164 280.612L247.393 280.797V276.817C247.393 273.052 247.362 272.805 246.652 272.064C245.695 271.046 244.029 270.984 243.011 271.941C242.363 272.558 242.301 272.867 242.301 275.798C242.301 279.594 241.9 280.859 240.48 281.445C239.616 281.785 239.338 281.785 238.443 281.353C237.178 280.767 237.116 280.489 236.993 276.138C236.9 273.144 236.808 272.774 236.16 272.064C235.111 270.953 233.444 270.953 232.395 272.064C231.685 272.805 231.654 273.052 231.654 276.817L231.685 280.797L230.883 280.612C229.062 280.211 226.223 278.606 225.205 277.372C223.446 275.335 223.353 272.774 224.896 269.626C226.562 266.139 230.451 262.868 234.493 261.51C237.086 260.615 241.313 260.523 243.875 261.263Z" fill="#F6A6BF"/>
<path d="M160.554 221.918C157.592 222.689 156.172 223.399 155.617 224.387C154.783 225.868 156.049 228.059 157.746 228.059C158.209 228.059 159.381 227.781 160.4 227.411C161.418 227.041 163.393 226.701 164.905 226.609C169.411 226.331 171.633 227.565 173.392 231.361C173.947 232.595 174.688 233.737 175.027 233.922C176.076 234.478 177.187 234.262 178.175 233.305C179.317 232.163 179.255 231.237 177.928 228.522C176.261 225.158 173.484 222.751 170.12 221.764C167.806 221.085 163.424 221.146 160.554 221.918Z" fill="#F6A6BF"/>
<path d="M211.534 221.733C207.307 223.029 203.295 227.472 202.863 231.299C202.739 232.441 202.832 232.749 203.511 233.428C205.054 234.971 207.245 234.169 208.047 231.762C208.603 230.095 210.639 227.812 212.213 227.102C213.941 226.3 217.459 226.331 220.237 227.164C223.755 228.213 224.557 228.244 225.452 227.318C226.254 226.547 226.47 225.312 226.069 224.201C225.791 223.492 223.94 222.627 221.132 221.887C218.323 221.177 213.571 221.085 211.534 221.733Z" fill="#F6A6BF"/>
<path d="M185.365 237.44C182.619 238.767 181.199 241.421 181.878 244.044C182.125 245.093 182.804 246.05 184.686 248.086C186.075 249.537 187.711 251.08 188.328 251.512L189.5 252.283L189.531 256.912C189.531 261.14 189.47 261.695 188.852 262.93C188.451 263.67 187.772 264.535 187.34 264.874C185.643 266.108 182.896 266.108 181.23 264.874C179.595 263.64 179.255 262.806 179.039 259.659C178.854 257.036 178.761 256.604 178.144 256.11C176.971 255.153 175.459 255.246 174.503 256.326C173.886 257.005 173.793 257.437 173.793 259.844C173.793 263.362 174.564 265.553 176.539 267.651C180.52 271.91 186.846 272.28 191.167 268.485L192.216 267.59L192.895 268.299C193.913 269.379 196.259 270.552 198.234 270.953C201.597 271.632 205.239 270.367 207.769 267.651C209.744 265.553 210.516 263.362 210.516 259.844C210.516 257.437 210.423 257.005 209.837 256.326C208.849 255.246 207.337 255.153 206.164 256.11C205.547 256.604 205.455 257.036 205.27 259.659C205.054 262.806 204.714 263.64 203.079 264.874C201.412 266.108 198.666 266.108 196.968 264.874C196.536 264.535 195.857 263.67 195.487 262.93C194.839 261.695 194.777 261.14 194.777 256.912L194.808 252.283L195.981 251.512C196.598 251.08 198.234 249.537 199.622 248.086C201.505 246.05 202.184 245.093 202.43 244.044C203.017 241.791 202.029 239.477 199.9 237.995C198.696 237.162 198.696 237.162 192.494 237.101C187.649 237.039 186.075 237.101 185.365 237.44ZM197.123 242.594C197.4 243.056 192.895 247.5 192.154 247.5C191.414 247.5 186.908 243.056 187.186 242.594C187.34 242.377 188.914 242.254 192.154 242.254C195.395 242.254 196.968 242.377 197.123 242.594Z" fill="#F6A6BF"/>
</g>
<path d="M58.46 97.2H51.52L51.54 109H48.98V95H58.48L58.46 97.2ZM68.7714 106.88V111.38H66.4314V109H58.1914V111.38H55.8714V106.88H56.3714C57.0514 106.853 57.5114 106.42 57.7514 105.58C58.0047 104.727 58.1714 103.527 58.2514 101.98L58.3914 98.32H67.1914V106.88H68.7714ZM60.5314 102.16C60.4781 103.387 60.3781 104.387 60.2314 105.16C60.0847 105.933 59.8181 106.507 59.4314 106.88H64.6914V100.44H60.5914L60.5314 102.16ZM81.0042 103.72C81.0042 103.893 80.9909 104.14 80.9642 104.46H72.5842C72.7309 105.247 73.1109 105.873 73.7242 106.34C74.3509 106.793 75.1242 107.02 76.0442 107.02C77.2176 107.02 78.1842 106.633 78.9442 105.86L80.2842 107.4C79.8042 107.973 79.1976 108.407 78.4642 108.7C77.7309 108.993 76.9042 109.14 75.9842 109.14C74.8109 109.14 73.7776 108.907 72.8842 108.44C71.9909 107.973 71.2976 107.327 70.8042 106.5C70.3242 105.66 70.0842 104.713 70.0842 103.66C70.0842 102.62 70.3176 101.687 70.7842 100.86C71.2642 100.02 71.9242 99.3667 72.7642 98.9C73.6042 98.4333 74.5509 98.2 75.6042 98.2C76.6442 98.2 77.5709 98.4333 78.3842 98.9C79.2109 99.3533 79.8509 100 80.3042 100.84C80.7709 101.667 81.0042 102.627 81.0042 103.72ZM75.6042 100.2C74.8042 100.2 74.1242 100.44 73.5642 100.92C73.0176 101.387 72.6842 102.013 72.5642 102.8H78.6242C78.5176 102.027 78.1909 101.4 77.6442 100.92C77.0976 100.44 76.4176 100.2 75.6042 100.2ZM89.2659 98.32H91.7659V105.36L97.6659 98.32H99.9459V109H97.4459V101.96L91.5659 109H89.2659V98.32ZM113.696 109.14C112.59 109.14 111.596 108.907 110.716 108.44C109.836 107.973 109.15 107.327 108.656 106.5C108.163 105.66 107.916 104.713 107.916 103.66C107.916 102.607 108.163 101.667 108.656 100.84C109.15 100.013 109.83 99.3667 110.696 98.9C111.576 98.4333 112.576 98.2 113.696 98.2C114.75 98.2 115.67 98.4133 116.456 98.84C117.256 99.2667 117.856 99.88 118.256 100.68L116.336 101.8C116.03 101.307 115.643 100.94 115.176 100.7C114.723 100.447 114.223 100.32 113.676 100.32C112.743 100.32 111.97 100.627 111.356 101.24C110.743 101.84 110.436 102.647 110.436 103.66C110.436 104.673 110.736 105.487 111.336 106.1C111.95 106.7 112.73 107 113.676 107C114.223 107 114.723 106.88 115.176 106.64C115.643 106.387 116.03 106.013 116.336 105.52L118.256 106.64C117.843 107.44 117.236 108.06 116.436 108.5C115.65 108.927 114.736 109.14 113.696 109.14ZM130.425 104.72H128.485V109H125.985V98.32H128.485V102.64H130.485L133.645 98.32H136.325L132.445 103.46L136.585 109H133.645L130.425 104.72ZM147.996 103.72C147.996 103.893 147.983 104.14 147.956 104.46H139.576C139.723 105.247 140.103 105.873 140.716 106.34C141.343 106.793 142.116 107.02 143.036 107.02C144.21 107.02 145.176 106.633 145.936 105.86L147.276 107.4C146.796 107.973 146.19 108.407 145.456 108.7C144.723 108.993 143.896 109.14 142.976 109.14C141.803 109.14 140.77 108.907 139.876 108.44C138.983 107.973 138.29 107.327 137.796 106.5C137.316 105.66 137.076 104.713 137.076 103.66C137.076 102.62 137.31 101.687 137.776 100.86C138.256 100.02 138.916 99.3667 139.756 98.9C140.596 98.4333 141.543 98.2 142.596 98.2C143.636 98.2 144.563 98.4333 145.376 98.9C146.203 99.3533 146.843 100 147.296 100.84C147.763 101.667 147.996 102.627 147.996 103.72ZM142.596 100.2C141.796 100.2 141.116 100.44 140.556 100.92C140.01 101.387 139.676 102.013 139.556 102.8H145.616C145.51 102.027 145.183 101.4 144.636 100.92C144.09 100.44 143.41 100.2 142.596 100.2ZM161.231 109V101.92L157.631 107.88H156.551L153.011 101.9V109H150.731V98.32H153.351L157.151 105L161.131 98.32H163.471L163.491 109H161.231ZM177.131 109.14C176.051 109.14 175.078 108.907 174.211 108.44C173.345 107.973 172.665 107.327 172.171 106.5C171.691 105.66 171.451 104.713 171.451 103.66C171.451 102.607 171.691 101.667 172.171 100.84C172.665 100.013 173.345 99.3667 174.211 98.9C175.078 98.4333 176.051 98.2 177.131 98.2C178.225 98.2 179.205 98.4333 180.071 98.9C180.938 99.3667 181.611 100.013 182.091 100.84C182.585 101.667 182.831 102.607 182.831 103.66C182.831 104.713 182.585 105.66 182.091 106.5C181.611 107.327 180.938 107.973 180.071 108.44C179.205 108.907 178.225 109.14 177.131 109.14ZM177.131 107C178.051 107 178.811 106.693 179.411 106.08C180.011 105.467 180.311 104.66 180.311 103.66C180.311 102.66 180.011 101.853 179.411 101.24C178.811 100.627 178.051 100.32 177.131 100.32C176.211 100.32 175.451 100.627 174.851 101.24C174.265 101.853 173.971 102.66 173.971 103.66C173.971 104.66 174.265 105.467 174.851 106.08C175.451 106.693 176.211 107 177.131 107ZM190.161 109.14C189.054 109.14 188.061 108.907 187.181 108.44C186.301 107.973 185.614 107.327 185.121 106.5C184.628 105.66 184.381 104.713 184.381 103.66C184.381 102.607 184.628 101.667 185.121 100.84C185.614 100.013 186.294 99.3667 187.161 98.9C188.041 98.4333 189.041 98.2 190.161 98.2C191.214 98.2 192.134 98.4133 192.921 98.84C193.721 99.2667 194.321 99.88 194.721 100.68L192.801 101.8C192.494 101.307 192.108 100.94 191.641 100.7C191.188 100.447 190.688 100.32 190.141 100.32C189.208 100.32 188.434 100.627 187.821 101.24C187.208 101.84 186.901 102.647 186.901 103.66C186.901 104.673 187.201 105.487 187.801 106.1C188.414 106.7 189.194 107 190.141 107C190.688 107 191.188 106.88 191.641 106.64C192.108 106.387 192.494 106.013 192.801 105.52L194.721 106.64C194.308 107.44 193.701 108.06 192.901 108.5C192.114 108.927 191.201 109.14 190.161 109.14ZM205.285 100.44H201.545V109H199.045V100.44H195.285V98.32H205.285V100.44ZM211.078 98.2C212.651 98.2 213.851 98.58 214.678 99.34C215.518 100.087 215.938 101.22 215.938 102.74V109H213.578V107.7C213.271 108.167 212.831 108.527 212.258 108.78C211.698 109.02 211.018 109.14 210.218 109.14C209.418 109.14 208.718 109.007 208.118 108.74C207.518 108.46 207.051 108.08 206.718 107.6C206.398 107.107 206.238 106.553 206.238 105.94C206.238 104.98 206.591 104.213 207.298 103.64C208.018 103.053 209.145 102.76 210.678 102.76H213.438V102.6C213.438 101.853 213.211 101.28 212.758 100.88C212.318 100.48 211.658 100.28 210.778 100.28C210.178 100.28 209.585 100.373 208.998 100.56C208.425 100.747 207.938 101.007 207.538 101.34L206.558 99.52C207.118 99.0933 207.791 98.7667 208.578 98.54C209.365 98.3133 210.198 98.2 211.078 98.2ZM210.738 107.32C211.365 107.32 211.918 107.18 212.398 106.9C212.891 106.607 213.238 106.193 213.438 105.66V104.42H210.858C209.418 104.42 208.698 104.893 208.698 105.84C208.698 106.293 208.878 106.653 209.238 106.92C209.598 107.187 210.098 107.32 210.738 107.32ZM226.772 103.44C228.092 103.84 228.752 104.693 228.752 106C228.752 106.96 228.392 107.7 227.672 108.22C226.952 108.74 225.885 109 224.472 109H219.032V98.32H224.252C225.558 98.32 226.578 98.56 227.312 99.04C228.045 99.52 228.412 100.2 228.412 101.08C228.412 101.627 228.265 102.1 227.972 102.5C227.692 102.9 227.292 103.213 226.772 103.44ZM221.412 102.78H224.032C225.325 102.78 225.972 102.333 225.972 101.44C225.972 100.573 225.325 100.14 224.032 100.14H221.412V102.78ZM224.272 107.18C225.645 107.18 226.332 106.733 226.332 105.84C226.332 105.373 226.172 105.027 225.852 104.8C225.532 104.56 225.032 104.44 224.352 104.44H221.412V107.18H224.272ZM231.414 98.32H233.914V105.36L239.814 98.32H242.094V109H239.594V101.96L233.714 109H231.414V98.32ZM253.917 100.44H250.177V109H247.677V100.44H243.917V98.32H253.917V100.44ZM261.091 101.84C262.451 101.84 263.491 102.147 264.211 102.76C264.944 103.373 265.311 104.24 265.311 105.36C265.311 106.533 264.911 107.44 264.111 108.08C263.311 108.72 262.184 109.033 260.731 109.02L255.731 109V98.32H258.231V101.82L261.091 101.84ZM260.511 107.18C261.244 107.193 261.804 107.04 262.191 106.72C262.577 106.4 262.771 105.933 262.771 105.32C262.771 104.72 262.584 104.28 262.211 104C261.837 103.72 261.271 103.573 260.511 103.56L258.231 103.54V107.16L260.511 107.18ZM277.895 109.14C276.789 109.14 275.795 108.907 274.915 108.44C274.035 107.973 273.349 107.327 272.855 106.5C272.362 105.66 272.115 104.713 272.115 103.66C272.115 102.607 272.362 101.667 272.855 100.84C273.349 100.013 274.029 99.3667 274.895 98.9C275.775 98.4333 276.775 98.2 277.895 98.2C278.949 98.2 279.869 98.4133 280.655 98.84C281.455 99.2667 282.055 99.88 282.455 100.68L280.535 101.8C280.229 101.307 279.842 100.94 279.375 100.7C278.922 100.447 278.422 100.32 277.875 100.32C276.942 100.32 276.169 100.627 275.555 101.24C274.942 101.84 274.635 102.647 274.635 103.66C274.635 104.673 274.935 105.487 275.535 106.1C276.149 106.7 276.929 107 277.875 107C278.422 107 278.922 106.88 279.375 106.64C279.842 106.387 280.229 106.013 280.535 105.52L282.455 106.64C282.042 107.44 281.435 108.06 280.635 108.5C279.849 108.927 278.935 109.14 277.895 109.14ZM292.397 103.44C293.717 103.84 294.377 104.693 294.377 106C294.377 106.96 294.017 107.7 293.297 108.22C292.577 108.74 291.51 109 290.097 109H284.657V98.32H289.877C291.183 98.32 292.203 98.56 292.937 99.04C293.67 99.52 294.037 100.2 294.037 101.08C294.037 101.627 293.89 102.1 293.597 102.5C293.317 102.9 292.917 103.213 292.397 103.44ZM287.037 102.78H289.657C290.95 102.78 291.597 102.333 291.597 101.44C291.597 100.573 290.95 100.14 289.657 100.14H287.037V102.78ZM289.897 107.18C291.27 107.18 291.957 106.733 291.957 105.84C291.957 105.373 291.797 105.027 291.477 104.8C291.157 104.56 290.657 104.44 289.977 104.44H287.037V107.18H289.897ZM301.799 109.14C300.719 109.14 299.746 108.907 298.879 108.44C298.013 107.973 297.333 107.327 296.839 106.5C296.359 105.66 296.119 104.713 296.119 103.66C296.119 102.607 296.359 101.667 296.839 100.84C297.333 100.013 298.013 99.3667 298.879 98.9C299.746 98.4333 300.719 98.2 301.799 98.2C302.893 98.2 303.873 98.4333 304.739 98.9C305.606 99.3667 306.279 100.013 306.759 100.84C307.253 101.667 307.499 102.607 307.499 103.66C307.499 104.713 307.253 105.66 306.759 106.5C306.279 107.327 305.606 107.973 304.739 108.44C303.873 108.907 302.893 109.14 301.799 109.14ZM301.799 107C302.719 107 303.479 106.693 304.079 106.08C304.679 105.467 304.979 104.66 304.979 103.66C304.979 102.66 304.679 101.853 304.079 101.24C303.479 100.627 302.719 100.32 301.799 100.32C300.879 100.32 300.119 100.627 299.519 101.24C298.933 101.853 298.639 102.66 298.639 103.66C298.639 104.66 298.933 105.467 299.519 106.08C300.119 106.693 300.879 107 301.799 107ZM319.969 103.72C319.969 103.893 319.956 104.14 319.929 104.46H311.549C311.696 105.247 312.076 105.873 312.689 106.34C313.316 106.793 314.089 107.02 315.009 107.02C316.182 107.02 317.149 106.633 317.909 105.86L319.249 107.4C318.769 107.973 318.162 108.407 317.429 108.7C316.696 108.993 315.869 109.14 314.949 109.14C313.776 109.14 312.742 108.907 311.849 108.44C310.956 107.973 310.262 107.327 309.769 106.5C309.289 105.66 309.049 104.713 309.049 103.66C309.049 102.62 309.282 101.687 309.749 100.86C310.229 100.02 310.889 99.3667 311.729 98.9C312.569 98.4333 313.516 98.2 314.569 98.2C315.609 98.2 316.536 98.4333 317.349 98.9C318.176 99.3533 318.816 100 319.269 100.84C319.736 101.667 319.969 102.627 319.969 103.72ZM314.569 100.2C313.769 100.2 313.089 100.44 312.529 100.92C311.982 101.387 311.649 102.013 311.529 102.8H317.589C317.482 102.027 317.156 101.4 316.609 100.92C316.062 100.44 315.382 100.2 314.569 100.2ZM330.903 100.44H325.203V109H322.703V98.32H330.903V100.44ZM337.014 109.14C335.934 109.14 334.961 108.907 334.094 108.44C333.228 107.973 332.548 107.327 332.054 106.5C331.574 105.66 331.334 104.713 331.334 103.66C331.334 102.607 331.574 101.667 332.054 100.84C332.548 100.013 333.228 99.3667 334.094 98.9C334.961 98.4333 335.934 98.2 337.014 98.2C338.108 98.2 339.088 98.4333 339.954 98.9C340.821 99.3667 341.494 100.013 341.974 100.84C342.468 101.667 342.714 102.607 342.714 103.66C342.714 104.713 342.468 105.66 341.974 106.5C341.494 107.327 340.821 107.973 339.954 108.44C339.088 108.907 338.108 109.14 337.014 109.14ZM337.014 107C337.934 107 338.694 106.693 339.294 106.08C339.894 105.467 340.194 104.66 340.194 103.66C340.194 102.66 339.894 101.853 339.294 101.24C338.694 100.627 337.934 100.32 337.014 100.32C336.094 100.32 335.334 100.627 334.734 101.24C334.148 101.853 333.854 102.66 333.854 103.66C333.854 104.66 334.148 105.467 334.734 106.08C335.334 106.693 336.094 107 337.014 107ZM355.151 104.72H353.211V109H350.711V98.32H353.211V102.64H355.211L358.371 98.32H361.051L357.171 103.46L361.311 109H358.371L355.151 104.72ZM367.483 109.14C366.403 109.14 365.43 108.907 364.563 108.44C363.696 107.973 363.016 107.327 362.523 106.5C362.043 105.66 361.803 104.713 361.803 103.66C361.803 102.607 362.043 101.667 362.523 100.84C363.016 100.013 363.696 99.3667 364.563 98.9C365.43 98.4333 366.403 98.2 367.483 98.2C368.576 98.2 369.556 98.4333 370.423 98.9C371.29 99.3667 371.963 100.013 372.443 100.84C372.936 101.667 373.183 102.607 373.183 103.66C373.183 104.713 372.936 105.66 372.443 106.5C371.963 107.327 371.29 107.973 370.423 108.44C369.556 108.907 368.576 109.14 367.483 109.14ZM367.483 107C368.403 107 369.163 106.693 369.763 106.08C370.363 105.467 370.663 104.66 370.663 103.66C370.663 102.66 370.363 101.853 369.763 101.24C369.163 100.627 368.403 100.32 367.483 100.32C366.563 100.32 365.803 100.627 365.203 101.24C364.616 101.853 364.323 102.66 364.323 103.66C364.323 104.66 364.616 105.467 365.203 106.08C365.803 106.693 366.563 107 367.483 107ZM383.722 100.44H379.982V109H377.482V100.44H373.722V98.32H383.722V100.44ZM385.535 98.32H388.035V105.36L393.935 98.32H396.215V109H393.715V101.96L387.835 109H385.535V98.32ZM404.018 104.72H402.078V109H399.578V98.32H402.078V102.64H404.078L407.238 98.32H409.918L406.038 103.46L410.178 109H407.238L404.018 104.72ZM415.726 98.2C417.3 98.2 418.5 98.58 419.326 99.34C420.166 100.087 420.586 101.22 420.586 102.74V109H418.226V107.7C417.92 108.167 417.48 108.527 416.906 108.78C416.346 109.02 415.666 109.14 414.866 109.14C414.066 109.14 413.366 109.007 412.766 108.74C412.166 108.46 411.7 108.08 411.366 107.6C411.046 107.107 410.886 106.553 410.886 105.94C410.886 104.98 411.24 104.213 411.946 103.64C412.666 103.053 413.793 102.76 415.326 102.76H418.086V102.6C418.086 101.853 417.86 101.28 417.406 100.88C416.966 100.48 416.306 100.28 415.426 100.28C414.826 100.28 414.233 100.373 413.646 100.56C413.073 100.747 412.586 101.007 412.186 101.34L411.206 99.52C411.766 99.0933 412.44 98.7667 413.226 98.54C414.013 98.3133 414.846 98.2 415.726 98.2ZM415.386 107.32C416.013 107.32 416.566 107.18 417.046 106.9C417.54 106.607 417.886 106.193 418.086 105.66V104.42H415.506C414.066 104.42 413.346 104.893 413.346 105.84C413.346 106.293 413.526 106.653 413.886 106.92C414.246 107.187 414.746 107.32 415.386 107.32ZM48.68 126.32H51.18V130.66H56.56V126.32H59.06V137H56.56V132.78H51.18V137H48.68V126.32ZM66.3905 126.2C67.9638 126.2 69.1638 126.58 69.9905 127.34C70.8305 128.087 71.2505 129.22 71.2505 130.74V137H68.8905V135.7C68.5838 136.167 68.1438 136.527 67.5705 136.78C67.0105 137.02 66.3305 137.14 65.5305 137.14C64.7305 137.14 64.0305 137.007 63.4305 136.74C62.8305 136.46 62.3638 136.08 62.0305 135.6C61.7105 135.107 61.5505 134.553 61.5505 133.94C61.5505 132.98 61.9038 132.213 62.6105 131.64C63.3305 131.053 64.4571 130.76 65.9905 130.76H68.7505V130.6C68.7505 129.853 68.5238 129.28 68.0705 128.88C67.6305 128.48 66.9705 128.28 66.0905 128.28C65.4905 128.28 64.8971 128.373 64.3105 128.56C63.7371 128.747 63.2505 129.007 62.8505 129.34L61.8705 127.52C62.4305 127.093 63.1038 126.767 63.8905 126.54C64.6771 126.313 65.5105 126.2 66.3905 126.2ZM66.0505 135.32C66.6771 135.32 67.2305 135.18 67.7105 134.9C68.2038 134.607 68.5505 134.193 68.7505 133.66V132.42H66.1705C64.7305 132.42 64.0105 132.893 64.0105 133.84C64.0105 134.293 64.1905 134.653 64.5505 134.92C64.9105 135.187 65.4105 135.32 66.0505 135.32ZM87.6114 131.44C88.9314 131.84 89.5914 132.693 89.5914 134C89.5914 134.96 89.2314 135.7 88.5114 136.22C87.7914 136.74 86.7247 137 85.3114 137H79.8714V126.32H85.0914C86.3981 126.32 87.4181 126.56 88.1514 127.04C88.8847 127.52 89.2514 128.2 89.2514 129.08C89.2514 129.627 89.1047 130.1 88.8114 130.5C88.5314 130.9 88.1314 131.213 87.6114 131.44ZM82.2514 130.78H84.8714C86.1647 130.78 86.8114 130.333 86.8114 129.44C86.8114 128.573 86.1647 128.14 84.8714 128.14H82.2514V130.78ZM85.1114 135.18C86.4847 135.18 87.1714 134.733 87.1714 133.84C87.1714 133.373 87.0114 133.027 86.6914 132.8C86.3714 132.56 85.8714 132.44 85.1914 132.44H82.2514V135.18H85.1114ZM98.1742 126.2C99.2142 126.2 100.141 126.427 100.954 126.88C101.781 127.333 102.428 127.973 102.894 128.8C103.361 129.627 103.594 130.58 103.594 131.66C103.594 132.74 103.361 133.7 102.894 134.54C102.428 135.367 101.781 136.007 100.954 136.46C100.141 136.913 99.2142 137.14 98.1742 137.14C96.7342 137.14 95.5942 136.66 94.7542 135.7V140.88H92.2542V126.32H94.6342V127.72C95.0476 127.213 95.5542 126.833 96.1542 126.58C96.7676 126.327 97.4409 126.2 98.1742 126.2ZM97.8942 135C98.8142 135 99.5676 134.693 100.154 134.08C100.754 133.467 101.054 132.66 101.054 131.66C101.054 130.66 100.754 129.853 100.154 129.24C99.5676 128.627 98.8142 128.32 97.8942 128.32C97.2942 128.32 96.7542 128.46 96.2742 128.74C95.7942 129.007 95.4142 129.393 95.1342 129.9C94.8542 130.407 94.7142 130.993 94.7142 131.66C94.7142 132.327 94.8542 132.913 95.1342 133.42C95.4142 133.927 95.7942 134.32 96.2742 134.6C96.7542 134.867 97.2942 135 97.8942 135ZM116.082 131.72C116.082 131.893 116.069 132.14 116.042 132.46H107.662C107.809 133.247 108.189 133.873 108.802 134.34C109.429 134.793 110.202 135.02 111.122 135.02C112.296 135.02 113.262 134.633 114.022 133.86L115.362 135.4C114.882 135.973 114.276 136.407 113.542 136.7C112.809 136.993 111.982 137.14 111.062 137.14C109.889 137.14 108.856 136.907 107.962 136.44C107.069 135.973 106.376 135.327 105.882 134.5C105.402 133.66 105.162 132.713 105.162 131.66C105.162 130.62 105.396 129.687 105.862 128.86C106.342 128.02 107.002 127.367 107.842 126.9C108.682 126.433 109.629 126.2 110.682 126.2C111.722 126.2 112.649 126.433 113.462 126.9C114.289 127.353 114.929 128 115.382 128.84C115.849 129.667 116.082 130.627 116.082 131.72ZM110.682 128.2C109.882 128.2 109.202 128.44 108.642 128.92C108.096 129.387 107.762 130.013 107.642 130.8H113.702C113.596 130.027 113.269 129.4 112.722 128.92C112.176 128.44 111.496 128.2 110.682 128.2ZM129.317 137V129.92L125.717 135.88H124.637L121.097 129.9V137H118.817V126.32H121.437L125.237 133L129.217 126.32H131.557L131.577 137H129.317ZM143.95 126.32V137H141.71V133.78H138.89L136.71 137H134.03L136.55 133.44C135.777 133.173 135.183 132.767 134.77 132.22C134.37 131.66 134.17 130.973 134.17 130.16C134.17 128.933 134.603 127.987 135.47 127.32C136.337 126.653 137.53 126.32 139.05 126.32H143.95ZM139.13 128.42C137.517 128.42 136.71 129.027 136.71 130.24C136.71 131.44 137.49 132.04 139.05 132.04H141.71V128.42H139.13ZM157.6 137.14C156.52 137.14 155.547 136.907 154.68 136.44C153.813 135.973 153.133 135.327 152.64 134.5C152.16 133.66 151.92 132.713 151.92 131.66C151.92 130.607 152.16 129.667 152.64 128.84C153.133 128.013 153.813 127.367 154.68 126.9C155.547 126.433 156.52 126.2 157.6 126.2C158.693 126.2 159.673 126.433 160.54 126.9C161.407 127.367 162.08 128.013 162.56 128.84C163.053 129.667 163.3 130.607 163.3 131.66C163.3 132.713 163.053 133.66 162.56 134.5C162.08 135.327 161.407 135.973 160.54 136.44C159.673 136.907 158.693 137.14 157.6 137.14ZM157.6 135C158.52 135 159.28 134.693 159.88 134.08C160.48 133.467 160.78 132.66 160.78 131.66C160.78 130.66 160.48 129.853 159.88 129.24C159.28 128.627 158.52 128.32 157.6 128.32C156.68 128.32 155.92 128.627 155.32 129.24C154.733 129.853 154.44 130.66 154.44 131.66C154.44 132.66 154.733 133.467 155.32 134.08C155.92 134.693 156.68 135 157.6 135ZM173.839 128.44H170.099V137H167.599V128.44H163.839V126.32H173.839V128.44ZM185.893 126.32V137H183.413V128.44H178.153V137H175.653V126.32H185.893ZM199.346 126.32L194.346 137.86C193.879 139.02 193.313 139.833 192.646 140.3C191.979 140.78 191.173 141.02 190.226 141.02C189.693 141.02 189.166 140.933 188.646 140.76C188.126 140.587 187.699 140.347 187.366 140.04L188.366 138.2C188.606 138.427 188.886 138.607 189.206 138.74C189.539 138.873 189.873 138.94 190.206 138.94C190.646 138.94 191.006 138.827 191.286 138.6C191.579 138.373 191.846 137.993 192.086 137.46L192.266 137.04L187.606 126.32H190.206L193.566 134.22L196.946 126.32H199.346ZM205.649 137.14C204.543 137.14 203.549 136.907 202.669 136.44C201.789 135.973 201.103 135.327 200.609 134.5C200.116 133.66 199.869 132.713 199.869 131.66C199.869 130.607 200.116 129.667 200.609 128.84C201.103 128.013 201.783 127.367 202.649 126.9C203.529 126.433 204.529 126.2 205.649 126.2C206.703 126.2 207.623 126.413 208.409 126.84C209.209 127.267 209.809 127.88 210.209 128.68L208.289 129.8C207.983 129.307 207.596 128.94 207.129 128.7C206.676 128.447 206.176 128.32 205.629 128.32C204.696 128.32 203.923 128.627 203.309 129.24C202.696 129.84 202.389 130.647 202.389 131.66C202.389 132.673 202.689 133.487 203.289 134.1C203.903 134.7 204.683 135 205.629 135C206.176 135 206.676 134.88 207.129 134.64C207.596 134.387 207.983 134.013 208.289 133.52L210.209 134.64C209.796 135.44 209.189 136.06 208.389 136.5C207.603 136.927 206.689 137.14 205.649 137.14ZM216.85 132.72H214.91V137H212.41V126.32H214.91V130.64H216.91L220.07 126.32H222.75L218.87 131.46L223.01 137H220.07L216.85 132.72ZM228.558 126.2C230.132 126.2 231.332 126.58 232.158 127.34C232.998 128.087 233.418 129.22 233.418 130.74V137H231.058V135.7C230.752 136.167 230.312 136.527 229.738 136.78C229.178 137.02 228.498 137.14 227.698 137.14C226.898 137.14 226.198 137.007 225.598 136.74C224.998 136.46 224.532 136.08 224.198 135.6C223.878 135.107 223.718 134.553 223.718 133.94C223.718 132.98 224.072 132.213 224.778 131.64C225.498 131.053 226.625 130.76 228.158 130.76H230.918V130.6C230.918 129.853 230.692 129.28 230.238 128.88C229.798 128.48 229.138 128.28 228.258 128.28C227.658 128.28 227.065 128.373 226.478 128.56C225.905 128.747 225.418 129.007 225.018 129.34L224.038 127.52C224.598 127.093 225.272 126.767 226.058 126.54C226.845 126.313 227.678 126.2 228.558 126.2ZM228.218 135.32C228.845 135.32 229.398 135.18 229.878 134.9C230.372 134.607 230.718 134.193 230.918 133.66V132.42H228.338C226.898 132.42 226.178 132.893 226.178 133.84C226.178 134.293 226.358 134.653 226.718 134.92C227.078 135.187 227.578 135.32 228.218 135.32ZM239.663 132.36C239.663 131.64 239.823 131.047 240.143 130.58C240.476 130.1 240.956 129.58 241.583 129.02C242.063 128.593 242.416 128.227 242.643 127.92C242.883 127.6 243.003 127.24 243.003 126.84C243.003 126.28 242.776 125.827 242.323 125.48C241.869 125.133 241.263 124.96 240.503 124.96C239.063 124.96 237.976 125.473 237.243 126.5L235.303 125.24C235.876 124.453 236.616 123.853 237.523 123.44C238.429 123.013 239.496 122.8 240.723 122.8C242.216 122.8 243.403 123.127 244.283 123.78C245.176 124.42 245.623 125.307 245.623 126.44C245.623 126.987 245.529 127.467 245.343 127.88C245.169 128.293 244.956 128.647 244.703 128.94C244.449 129.22 244.116 129.547 243.703 129.92C243.196 130.373 242.816 130.773 242.563 131.12C242.323 131.467 242.203 131.88 242.203 132.36H239.663ZM240.943 137.14C240.476 137.14 240.089 136.993 239.783 136.7C239.489 136.393 239.343 136.02 239.343 135.58C239.343 135.14 239.489 134.773 239.783 134.48C240.089 134.187 240.476 134.04 240.943 134.04C241.396 134.04 241.769 134.187 242.063 134.48C242.369 134.773 242.523 135.14 242.523 135.58C242.523 136.02 242.369 136.393 242.063 136.7C241.769 136.993 241.396 137.14 240.943 137.14Z" fill="#242424"/>
</svg>
