<svg width="541" height="406" viewBox="0 0 541 406" fill="none" xmlns="http://www.w3.org/2000/svg">
<g clip-path="url(#clip0_11_764)">
<path d="M181.618 72.2876L404.224 91.5066C476.507 97.7618 530.008 161.434 523.754 233.722C517.491 306.031 453.839 359.565 381.569 353.325L158.924 334.06C86.6621 327.807 33.1543 264.134 39.3948 191.837C45.671 119.537 109.331 65.9968 181.618 72.2876Z" fill="#FAF7F5"/>
<path d="M384.809 367.686C380.587 377.885 385.605 389.642 395.987 393.974C406.369 398.305 418.238 393.484 422.462 383.264C426.686 373.043 421.665 361.307 411.283 356.982C400.9 352.658 389.032 357.472 384.809 367.686Z" fill="#FFFEF1"/>
<path d="M405.751 380.834C410.152 381.26 414.574 380.267 418.371 378C422.168 375.732 425.14 372.309 426.854 368.23C427.894 365.71 428.419 363.007 428.397 360.28C428.374 357.553 427.805 354.859 426.724 352.356C425.116 348.574 422.435 345.347 419.012 343.074C415.59 340.801 411.576 339.581 407.468 339.567C403.36 339.553 399.337 340.743 395.898 342.993C392.459 345.242 389.754 348.45 388.119 352.221C386.057 357.335 386.105 363.059 388.254 368.137C390.403 373.216 394.477 377.234 399.583 379.312C401.55 380.127 403.63 380.64 405.751 380.834ZM408.438 348.27C409.685 348.387 410.909 348.69 412.066 349.17C415.077 350.397 417.481 352.765 418.754 355.758C419.383 357.205 419.713 358.765 419.725 360.343C419.737 361.921 419.431 363.485 418.824 364.942C418.004 367.069 416.607 368.926 414.791 370.304C412.975 371.682 410.811 372.527 408.542 372.744C406.273 372.96 403.989 372.54 401.945 371.531C399.902 370.521 398.18 368.962 396.973 367.028C395.766 365.094 395.121 362.862 395.111 360.582C395.101 358.301 395.726 356.063 396.916 354.119C398.106 352.174 399.815 350.599 401.849 349.571C403.884 348.543 406.164 348.102 408.435 348.298L408.438 348.27Z" fill="#28AFC9"/>
<path d="M80.2423 87.436C62.1433 75.5879 38.7804 79.2647 28.0529 95.6553C17.3255 112.046 23.2986 134.946 41.3976 146.794C59.4966 158.642 82.8607 154.951 93.5869 138.575C104.313 122.198 98.3407 99.2911 80.2423 87.436Z" fill="#FFFEF1"/>
<path d="M71.7912 163.898C85.1964 165.134 98.3521 159.669 105.721 148.404C116.72 131.594 110.742 108.136 92.3968 96.1239C83.8226 90.3992 73.4236 88.0763 63.2288 89.6085C53.0829 91.2073 44.5336 96.6099 39.1615 104.819C33.7895 113.027 32.2527 123.03 34.8495 132.968C37.5282 142.925 43.8184 151.526 52.4931 157.093C58.272 160.907 64.8986 163.244 71.7912 163.898ZM87.6342 103.386C101.98 112.785 106.833 130.845 98.4545 143.647C90.0761 156.449 71.6158 159.223 57.2494 149.823C50.3794 145.433 45.3894 138.641 43.2513 130.771C41.2866 123.234 42.4123 115.7 46.4284 109.569C50.4445 103.438 56.8858 99.3936 64.5756 98.1825C72.6438 96.9926 80.8655 98.8477 87.6412 103.387L87.6342 103.386Z" fill="#28AFC9"/>
<path d="M460.364 94.8333L477.978 98.8575C479.831 99.2805 481.583 100.065 483.133 101.165C484.683 102.265 486.001 103.66 487.013 105.27C488.024 106.88 488.708 108.674 489.026 110.549C489.344 112.423 489.29 114.343 488.867 116.196L483.707 138.776C483.284 140.63 482.5 142.382 481.4 143.933C480.3 145.484 478.906 146.804 477.296 147.815C475.687 148.827 473.894 149.512 472.02 149.831C470.146 150.149 468.228 150.096 466.374 149.673L448.76 145.648C444.559 144.692 440.214 144.545 435.958 145.216L373.122 155.108L396.322 53.4774L448.634 89.6645C452.179 92.1197 456.16 93.8742 460.364 94.8333Z" fill="#FFFEF1"/>
<path d="M367.456 160.396L436.629 149.507C440.347 148.919 444.143 149.049 447.812 149.889L465.427 153.913C470.29 155.015 475.392 154.144 479.616 151.49C483.839 148.836 486.839 144.616 487.958 139.754L493.111 117.167C494.214 112.301 493.344 107.197 490.692 102.972C488.04 98.7475 483.822 95.7471 478.962 94.6283L461.34 90.6104C457.672 89.7864 454.196 88.2678 451.098 86.1366L393.512 46.2511L367.456 160.396ZM444.724 140.617C441.576 140.325 438.404 140.429 435.282 140.926L378.775 149.834L399.122 60.6961L446.164 93.2702C450.164 96.0464 454.659 98.0281 459.406 99.1078L477.024 103.09C479.641 103.693 481.913 105.309 483.341 107.584C484.77 109.859 485.239 112.608 484.646 115.229L479.493 137.816C478.891 140.435 477.276 142.709 475.001 144.139C472.727 145.569 469.978 146.038 467.358 145.443L449.744 141.419C448.09 141.042 446.413 140.774 444.724 140.617Z" fill="#EA4385"/>
<path d="M489.204 114.766L493.433 115.728C494.546 115.982 495.597 116.452 496.527 117.113C497.458 117.773 498.249 118.611 498.856 119.577C499.462 120.544 499.873 121.62 500.063 122.746C500.254 123.871 500.221 125.023 499.966 126.135L498.032 134.64C497.514 136.883 496.128 138.829 494.178 140.051C492.228 141.273 489.872 141.67 487.63 141.156L483.4 140.195L489.204 114.766Z" fill="#FAF7F5"/>
<path d="M488.377 145.666C491.518 145.949 494.656 145.084 497.209 143.232C499.762 141.379 501.557 138.663 502.262 135.588L504.194 127.118C504.575 125.45 504.624 123.724 504.338 122.037C504.052 120.35 503.437 118.737 502.527 117.288C501.618 115.839 500.432 114.584 499.038 113.594C497.643 112.604 496.067 111.899 494.4 111.518L485.935 109.587L478.201 143.464L486.666 145.402C487.23 145.528 487.802 145.616 488.377 145.666ZM492.467 120.008C493.022 120.135 493.547 120.37 494.012 120.7C494.476 121.03 494.871 121.449 495.174 121.932C495.477 122.415 495.682 122.953 495.776 123.515C495.871 124.077 495.854 124.652 495.726 125.208L493.795 133.677C493.535 134.798 492.843 135.771 491.869 136.384C490.895 136.996 489.719 137.199 488.596 136.947L492.467 120.008Z" fill="#28AFC9"/>
<path d="M467.807 149.995L462.005 175.403C461.623 177.073 460.916 178.652 459.924 180.049C458.932 181.446 457.675 182.633 456.224 183.544C454.773 184.455 453.157 185.07 451.468 185.356C449.779 185.641 448.051 185.591 446.381 185.207C444.713 184.827 443.137 184.121 441.742 183.13C440.347 182.14 439.161 180.884 438.251 179.435C437.342 177.985 436.727 176.37 436.442 174.683C436.156 172.996 436.206 171.268 436.588 169.6L442.404 144.194L467.807 149.995Z" fill="white"/>
<path d="M447.72 189.806C451.909 190.188 456.095 189.037 459.502 186.567C462.909 184.097 465.305 180.475 466.247 176.373L473.004 146.726L439.143 138.994L432.386 168.641C431.366 173.133 432.169 177.846 434.619 181.746C437.069 185.646 440.965 188.414 445.453 189.442C446.2 189.615 446.957 189.736 447.72 189.806ZM462.601 153.257L457.768 174.426C457.222 176.637 455.83 178.544 453.892 179.739C451.954 180.933 449.625 181.319 447.406 180.812C445.187 180.306 443.256 178.949 442.027 177.032C440.799 175.115 440.372 172.793 440.838 170.564L445.67 149.394L462.601 153.257Z" fill="#F6A6BF"/>
<path d="M448.205 118.786C450.401 109.552 451.043 100.015 450.103 90.5694C453.264 92.5493 456.731 93.9902 460.364 94.8334L477.979 98.8576C479.832 99.2805 481.583 100.065 483.134 101.165C484.684 102.265 486.002 103.66 487.013 105.27C488.024 106.88 488.708 108.674 489.027 110.549C489.345 112.423 489.291 114.343 488.868 116.196L483.708 138.776C483.285 140.63 482.501 142.383 481.401 143.934C480.301 145.484 478.906 146.804 477.297 147.815C475.687 148.827 473.894 149.512 472.02 149.831C470.146 150.149 468.228 150.096 466.375 149.673L448.761 145.648C445.111 144.831 441.352 144.62 437.634 145.025C442.588 136.926 446.161 128.058 448.205 118.786Z" fill="#FAF7F5"/>
<path d="M467.923 154.312C472.46 154.72 476.991 153.469 480.677 150.791C484.363 148.113 486.955 144.19 487.972 139.748L493.126 117.161C494.229 112.295 493.359 107.191 490.707 102.966C488.055 98.7416 483.837 95.7411 478.977 94.6223L461.355 90.6045C458.18 89.8645 455.149 88.6047 452.385 86.8761L444.796 82.1739L445.783 91.0535C446.677 100.015 446.081 109.062 444.018 117.829C442.083 126.622 438.703 135.034 434.016 142.722L429.274 150.297L438.153 149.351C441.393 148.995 444.668 149.178 447.848 149.891L465.469 153.916C466.278 154.101 467.097 154.234 467.923 154.312ZM454.863 97.7216C456.348 98.2673 457.867 98.7185 459.409 99.0726L477.024 103.09C479.641 103.693 481.913 105.309 483.342 107.584C484.77 109.859 485.239 112.608 484.647 115.228L479.493 137.816C478.893 140.436 477.278 142.711 475.003 144.141C472.728 145.571 469.978 146.04 467.359 145.443L449.744 141.419C448.2 141.066 446.635 140.813 445.058 140.662C451.59 127.295 454.946 112.599 454.863 97.7216Z" fill="#F6A6BF"/>
<path d="M352.116 96.847C345.174 127.267 353.052 154.981 369.686 158.781C386.319 162.58 405.468 141.022 412.408 110.616C419.349 80.2097 411.479 52.4827 394.839 48.6824C378.198 44.8821 359.055 66.4477 352.116 96.847Z" fill="white"/>
<path d="M371.595 163.474C390.058 165.176 409.451 143.203 416.665 111.586C420.203 96.1848 420.207 80.8526 416.659 68.5249C412.883 55.2302 405.479 46.6907 395.804 44.4857C376.498 40.0654 355.475 62.6507 347.883 95.9124C344.345 111.314 344.342 126.646 347.886 139.016C351.662 152.304 359.066 160.843 368.733 163.055C369.677 163.256 370.633 163.396 371.595 163.474ZM392.159 52.6417C392.736 52.6961 393.31 52.7891 393.876 52.92C400.316 54.3892 405.443 60.7634 408.308 70.861C411.434 81.8721 411.397 95.6482 408.198 109.676C401.91 137.22 384.709 157.765 370.673 154.572C364.233 153.103 359.106 146.728 356.235 136.623C353.109 125.612 353.152 111.837 356.352 97.8086C362.382 71.3773 378.452 51.378 392.159 52.6417Z" fill="#F6A6BF"/>
<path d="M366.117 100.043C361.488 120.314 364.971 138.396 373.899 140.433C382.827 142.47 393.808 127.691 398.439 107.4C403.071 87.1081 399.579 69.0465 390.658 67.0098C381.737 64.973 370.733 79.771 366.117 100.043Z" fill="#F6A6BF"/>
<path d="M374.5 144.922C380.097 145.438 386.023 141.932 391.26 134.883C396.246 128.178 400.296 118.774 402.664 108.404C405.032 98.0332 405.469 87.7883 403.913 79.5761C402.094 70.1539 397.741 64.1828 391.637 62.8082C385.534 61.4337 379.033 64.8934 373.314 72.5899C368.32 79.2946 364.277 88.6988 361.902 99.0685C356.573 122.409 361.327 142.006 372.95 144.666C373.46 144.785 373.978 144.87 374.5 144.922ZM389.289 71.2039C389.423 71.2087 389.556 71.221 389.688 71.2407C392.113 71.7961 394.295 75.6045 395.367 81.1884C396.728 88.2388 396.31 97.2008 394.202 106.43C392.095 115.66 388.582 123.913 384.296 129.674C380.904 134.239 377.295 136.73 374.869 136.174C370.033 135.065 365.824 120.798 370.355 100.984C372.462 91.7547 375.983 83.4954 380.262 77.7343C383.465 73.4483 386.882 70.982 389.289 71.2039Z" fill="#F6A6BF"/>
<path d="M371.287 99.9055C371.971 96.8919 373.355 94.0816 375.326 91.7021C377.297 89.3226 379.8 87.4408 382.633 86.209C385.466 84.9773 388.549 84.4302 391.633 84.612C394.716 84.7938 397.714 85.6994 400.382 87.2556C400.628 94.0343 399.964 100.816 398.409 107.418C397.14 113.084 395.248 118.591 392.766 123.84C389.634 124.214 386.458 123.829 383.505 122.718C380.553 121.607 377.912 119.802 375.803 117.455C373.695 115.109 372.181 112.289 371.39 109.234C370.6 106.179 370.555 102.979 371.259 99.9029L371.287 99.9055Z" fill="white"/>
<path d="M388.213 128.227C389.906 128.381 391.612 128.356 393.3 128.153L395.668 127.877L396.706 125.728C399.332 120.188 401.331 114.373 402.666 108.39C404.31 101.402 405.011 94.2249 404.748 87.051L404.635 84.6899L402.594 83.4852C399.333 81.5912 395.673 80.4906 391.909 80.272C388.145 80.0533 384.382 80.7229 380.924 82.2266C377.466 83.7303 374.41 86.0261 372.001 88.9287C369.593 91.8313 367.9 95.2595 367.059 98.9368C365.639 105.158 366.745 111.688 370.135 117.092C373.525 122.497 378.921 126.334 385.137 127.76C386.151 127.985 387.178 128.141 388.213 128.227ZM389.944 119.634C387.806 119.559 385.708 119.039 383.783 118.105C381.858 117.172 380.149 115.846 378.766 114.213C377.383 112.581 376.357 110.677 375.753 108.624C375.149 106.571 374.98 104.414 375.258 102.292C375.536 100.17 376.254 98.129 377.366 96.3006C378.478 94.4722 379.96 92.8965 381.717 91.6746C383.473 90.4526 385.465 89.6113 387.566 89.2047C389.666 88.7981 391.828 88.8351 393.913 89.3134C394.671 89.4828 395.414 89.7119 396.136 89.9984C396.111 95.5402 395.462 101.062 394.201 106.458C393.18 110.969 391.755 115.378 389.944 119.634Z" fill="#F6A6BF"/>
<path d="M202.015 365.395L288.522 372.877C289.669 372.982 290.811 372.628 291.697 371.892C292.582 371.155 293.14 370.097 293.245 368.95C293.351 367.802 292.997 366.66 292.261 365.774C291.525 364.888 290.467 364.331 289.321 364.225L202.813 356.743C201.667 356.637 200.525 356.992 199.639 357.728C198.753 358.465 198.196 359.523 198.09 360.67C197.985 361.817 198.339 362.96 199.075 363.846C199.811 364.732 200.868 365.289 202.015 365.395Z" fill="#EA4385"/>
<path d="M447.753 357.592C448.747 357.685 449.742 357.433 450.571 356.878C479.036 337.787 499.23 308.632 507.101 275.266C514.971 241.899 509.934 206.792 493.002 176.99C492.724 176.487 492.348 176.044 491.898 175.686C491.447 175.329 490.93 175.065 490.376 174.91C489.823 174.754 489.244 174.71 488.673 174.78C488.102 174.85 487.551 175.033 487.051 175.318C486.552 175.603 486.114 175.984 485.762 176.44C485.411 176.895 485.154 177.416 485.006 177.972C484.858 178.528 484.821 179.107 484.898 179.677C484.976 180.248 485.166 180.796 485.457 181.292C501.31 209.184 506.027 242.045 498.661 273.277C491.295 304.508 472.392 331.797 445.747 349.663C444.992 350.158 444.409 350.877 444.081 351.719C443.754 352.561 443.697 353.484 443.919 354.36C444.142 355.236 444.632 356.02 445.321 356.604C446.011 357.187 446.865 357.54 447.765 357.614L447.753 357.592Z" fill="#F6A6BF"/>
<path d="M123.79 100.84C124.236 100.882 124.686 100.854 125.124 100.758C137.669 98.0043 150.56 97.1744 163.354 98.2968C164.501 98.4026 165.643 98.0482 166.529 97.3117C167.414 96.5753 167.972 95.517 168.077 94.3697C168.183 93.2224 167.829 92.0802 167.093 91.1942C166.357 90.3082 165.3 89.751 164.153 89.6453C150.484 88.4508 136.713 89.3374 123.31 92.2751C122.302 92.4959 121.405 93.0688 120.78 93.8911C120.156 94.7135 119.844 95.7314 119.902 96.7625C119.96 97.7935 120.383 98.7702 121.095 99.5174C121.808 100.265 122.763 100.733 123.79 100.84Z" fill="#FFFEF1"/>
<path d="M139.917 360.022L140.687 360.093L167.987 362.455C169.107 362.513 170.206 362.135 171.054 361.401C171.901 360.666 172.433 359.632 172.536 358.515C172.639 357.398 172.306 356.284 171.607 355.407C170.907 354.53 169.896 353.958 168.785 353.81L141.485 351.441L140.785 351.377C71.3804 344.978 19.9236 283.47 25.946 213.921C27.3679 197.163 32.1181 180.857 39.9184 165.957C40.4318 164.939 40.5242 163.759 40.1755 162.673C39.8269 161.587 39.0651 160.682 38.0548 160.153C37.0446 159.624 35.8668 159.514 34.776 159.846C33.6853 160.179 32.7689 160.928 32.225 161.93C23.8729 177.833 18.774 195.242 17.2264 213.138C10.7629 287.468 65.7755 353.186 139.917 360.022Z" fill="#F6A6BF"/>
<path fill-rule="evenodd" clip-rule="evenodd" d="M268.924 171.322L268.924 171.586C268.949 171.546 268.962 171.5 268.962 171.454C268.962 171.407 268.949 171.361 268.924 171.322Z" fill="#241D50"/>
<path fill-rule="evenodd" clip-rule="evenodd" d="M268.905 171.588C267.543 173.624 233.033 167.692 233.033 167.692C233.033 167.692 214.082 200.474 230.096 235.552C241.072 258.409 250.288 273.323 248.93 299.067C238.515 301.211 239.377 308.74 245.957 308.439C247.19 308.439 253.199 308.546 254.048 308.474C262.082 307.759 256.903 274.901 255.029 264.629C254.63 262.729 254.466 261.579 254.466 261.579C254.466 261.579 254.687 262.715 255.029 264.629C256.625 272.187 261.963 291.708 275.699 298.85C274.68 298.286 269.354 298.643 265.718 300.344C258.825 303.559 254.112 309.503 269.125 308.437C287.831 308.863 305.845 308.397 305.845 308.397C305.845 308.397 355.393 281.797 312.775 238.129C291.22 216.045 264.058 228.513 268.905 171.588Z" fill="#241D50"/>
<path fill-rule="evenodd" clip-rule="evenodd" d="M255.032 264.659C254.69 262.744 254.469 261.608 254.469 261.608C254.469 261.608 254.633 262.758 255.032 264.659Z" fill="#241D50"/>
<path d="M361.303 182.51C338.241 189.655 331.507 224.101 326.997 273.653C326.354 280.668 323.108 301.876 301.037 307.501C301.115 307.679 301.187 307.851 301.258 308.029C331.876 310.883 345.11 282.137 346.995 256.929C350.414 219.391 355.164 194.354 375.416 200.852C384.227 204.758 388.935 174.399 361.303 182.51Z" fill="#2A2460"/>
<path fill-rule="evenodd" clip-rule="evenodd" d="M292.125 144.053C286.179 144.732 275.878 146.083 274.78 147.426C265.921 136.998 248.185 136.107 243.088 136.079L221.212 117.695C220.867 117.403 220.452 117.206 220.008 117.124C219.565 117.042 219.107 117.078 218.681 117.227C218.254 117.376 217.874 117.634 217.578 117.976C217.282 118.317 217.08 118.731 216.992 119.174C215.494 126.732 212.569 141.64 212.812 142.083C187.622 178.844 236.908 195.91 256.341 194.122C279.046 189.769 284.358 182.219 286.996 174.832C290.041 166.26 288.801 164.746 288.801 164.746L294.897 147.602C295.051 147.179 295.095 146.722 295.025 146.277C294.953 145.832 294.771 145.412 294.494 145.057C294.216 144.702 293.853 144.423 293.439 144.247C293.024 144.072 292.573 144.005 292.125 144.053Z" fill="#2A2460"/>
<path d="M255.181 176.916C253.206 177.809 251.795 177.916 251.21 177.237C250.498 176.423 250.847 174.623 251.082 174.087L251.197 173.937C251.293 173.812 251.345 173.659 251.345 173.502C251.345 173.344 251.293 173.191 251.197 173.066C251.108 172.932 250.976 172.833 250.823 172.784C250.671 172.735 250.506 172.738 250.355 172.795C250.147 172.891 249.977 173.055 249.871 173.259C248.445 175.109 246.969 175.959 245.593 175.795C242.321 175.431 239.948 170.01 239.948 169.939C239.91 169.851 239.856 169.772 239.788 169.704C239.72 169.638 239.639 169.585 239.551 169.55C239.463 169.514 239.369 169.497 239.273 169.498C239.178 169.499 239.084 169.519 238.996 169.557C238.909 169.594 238.83 169.649 238.763 169.717C238.696 169.785 238.644 169.866 238.609 169.954C238.573 170.042 238.556 170.137 238.557 170.233C238.558 170.328 238.577 170.422 238.615 170.51C238.722 170.767 241.323 176.753 245.394 177.245C246.109 177.311 246.831 177.227 247.513 176.996C248.194 176.766 248.82 176.396 249.35 175.909C249.336 176.409 249.435 176.906 249.636 177.363C249.839 177.82 250.14 178.226 250.519 178.552C250.943 178.829 251.42 179.013 251.92 179.093C252.42 179.173 252.931 179.147 253.42 179.016C254.234 178.846 255.026 178.583 255.78 178.23C255.868 178.193 255.947 178.138 256.014 178.069C256.081 178.001 256.133 177.919 256.168 177.83C256.202 177.74 256.218 177.645 256.215 177.549C256.212 177.453 256.19 177.36 256.15 177.273C256.112 177.183 256.056 177.103 255.986 177.037C255.916 176.971 255.833 176.919 255.742 176.886C255.652 176.852 255.555 176.838 255.458 176.843C255.362 176.848 255.268 176.873 255.181 176.916Z" fill="white"/>
<path fill-rule="evenodd" clip-rule="evenodd" d="M252.281 168.43C252.423 168.43 244.247 161.752 250.911 173.337C250.911 173.337 262.439 167.672 252.281 168.43Z" fill="url(#paint0_linear_11_764)"/>
<path fill-rule="evenodd" clip-rule="evenodd" d="M195.84 156.006C196.752 155.828 210.639 154.633 226.491 165.545C226.491 165.545 210.112 151.169 195.84 156.006Z" fill="white"/>
<path fill-rule="evenodd" clip-rule="evenodd" d="M195.082 167.149C195.866 166.713 208.234 161.533 225.791 166.895C225.791 166.895 206.773 158.512 195.082 167.149Z" fill="white"/>
<path fill-rule="evenodd" clip-rule="evenodd" d="M267.449 177.752C281.542 178.957 288.649 186.399 288.542 186.392C282.897 177.243 267.449 177.752 267.449 177.752Z" fill="white"/>
<path fill-rule="evenodd" clip-rule="evenodd" d="M267.229 178.809C279.724 183.993 284.058 192.907 283.965 192.872C281.443 182.793 267.229 178.809 267.229 178.809Z" fill="white"/>
<path opacity="0.21" fill-rule="evenodd" clip-rule="evenodd" d="M220.47 123.751C216.842 124.43 219.086 139.609 219.086 139.609C223.363 136.74 228.39 135.2 233.536 135.178C233.536 135.178 224.092 123.079 220.47 123.751Z" fill="white"/>
<path opacity="0.21" fill-rule="evenodd" clip-rule="evenodd" d="M288.004 149.004C285.573 148.29 278.023 151.148 278.023 151.148C282.792 151.991 285.607 157.826 285.607 157.826C285.607 157.826 290.441 149.704 288.004 149.004Z" fill="white"/>
</g>
<defs>
<linearGradient id="paint0_linear_11_764" x1="248.295" y1="169.923" x2="256.465" y2="169.924" gradientUnits="userSpaceOnUse">
<stop stop-color="#EC6588"/>
<stop offset="1" stop-color="#E71A80"/>
</linearGradient>
<clipPath id="clip0_11_764">
<rect width="510.083" height="359.924" fill="white" transform="matrix(-0.995776 -0.091813 -0.0918819 0.99577 540.998 46.8323)"/>
</clipPath>
</defs>
</svg>
