<svg width="225" height="218" viewBox="0 0 225 218" fill="none" xmlns="http://www.w3.org/2000/svg">
<g opacity="0.3" clip-path="url(#clip0_5401_182)">
<path d="M170.273 70.1858C157.782 65.9046 142.807 74.7454 140.889 87.5109C138.481 103.66 156.757 113.319 172.036 104.016C175.266 102.031 175.83 101.475 178.621 97.2181C181.321 93.1003 181.698 92.2223 182.082 89.1006C182.52 85.2871 181.692 81.1731 179.669 77.6649C178.211 75.1218 173.35 71.2755 170.273 70.1858ZM172.329 82.9758C173.657 86.2265 173.572 88.486 171.984 91.4145C166.057 102.281 148.942 100.791 149.674 89.4303C150.334 78.6847 168.336 73.5464 172.329 82.9758Z" fill="#FAF7F5"/>
<path d="M116.721 36.223C113.215 35.3815 107.465 36.4423 103.897 38.5363C101.186 40.1339 100.531 40.829 97.8312 44.9468C95.0402 49.2034 94.7551 49.9426 94.2235 53.6952C93.0612 62.0614 96.1931 70.0663 102.448 74.6272C106.669 77.7239 110.238 78.6727 115.021 77.9706C126.373 76.28 133.661 64.4535 131.039 52.02C129.825 46.2637 127.446 42.5884 122.791 39.3404C120.386 37.6323 118.327 36.6138 116.721 36.223ZM120.848 49.7087C123.343 54.121 123.319 59.3308 120.809 63.97C114.76 75.0214 101.1 67.8575 103.138 54.7071C103.977 49.37 108.321 44.8745 112.834 44.7885C115.837 44.7722 119.201 46.8439 120.848 49.7087Z" fill="#FAF7F5"/>
<path d="M175.973 118.501C168.847 116.081 162.229 116.64 156.028 120.316C152.199 122.503 151.772 122.951 149.224 126.838C146.948 130.308 146.406 131.54 146.138 133.877C145.683 137.614 146.478 141.575 148.424 145.099C149.837 147.611 150.536 148.268 154.491 150.859C158.678 153.603 159.158 153.785 163.523 154.329C180.937 156.479 193.99 140.425 185.964 126.899C183.644 122.932 179.993 119.878 175.973 118.501ZM178.76 131.902C180.328 136.104 179.119 139.876 175.268 142.909C169.431 147.551 159.374 146.253 155.971 140.386C152.6 134.672 157.074 127.748 165.207 126.198C170.757 125.138 177.271 127.884 178.76 131.902Z" fill="#FAF7F5"/>
<path d="M69.6586 51.2929C65.2712 50.072 60.4713 50.6974 56.4443 53.0859C53.8412 54.6214 53.0484 55.4248 50.8035 58.8486C48.4373 62.4575 48.1825 63.1504 47.6873 67.456C45.5853 84.8635 62.1263 98.082 76.2502 90.3369C78.7017 89.0327 79.357 88.3376 81.9052 84.4512C84.3766 80.5805 84.8134 79.61 85.1671 76.5345C86.0949 69.3374 83.5496 61.4523 78.6784 56.6073C75.7371 53.688 73.6293 52.4393 69.6586 51.2929ZM74.4861 65.4356C78.1681 71.4858 76.668 79.9615 71.4294 82.8791C69.0549 84.1675 64.7687 83.8066 62.1632 82.0995C56.5802 78.4416 54.6476 68.7091 58.3183 63.1107C59.9868 60.566 63.9148 59.0387 67.218 59.6815C69.2549 60.0239 73.0134 63.0156 74.4861 65.4356Z" fill="#FAF7F5"/>
<path d="M113.377 94.8835C106.174 92.4792 96.8189 93.5596 90.0674 97.6687C86.2548 99.9331 86.1011 99.9646 81.6895 99.3892C78.4652 98.9304 75.7244 99.0528 72.1584 99.8252C50.4854 104.476 42.3686 130.246 57.3565 146.746C62.4826 152.419 71.5326 156.166 79.2169 155.909L82.7121 155.752L83.9625 159.018C86.6999 166.103 93.3896 172.537 100.781 175.263C113.29 179.821 127.183 175.166 134.495 164.015C140.167 155.363 140.274 143.13 134.805 134.124C132.455 130.202 132.438 130.125 133.041 125.758C134.207 117.791 131.168 108.326 125.579 102.547C123.056 99.9023 116.87 96.0479 113.377 94.8835ZM120.608 110.535C124.122 115.218 125.259 122.511 123.453 128.207C122.424 131.501 122.622 132.822 124.742 135.269C127.581 138.65 128.871 141.348 129.606 145.401C130.62 151.158 130.034 154.081 126.727 159.124C124.421 162.641 123.568 163.537 121.088 165.087C116.97 167.614 112.866 168.497 108.131 167.908C104.429 167.467 103.64 167.149 99.8252 164.649C96.1962 162.271 95.4336 161.507 93.8516 158.949C92.8947 157.264 91.6908 154.028 91.1586 151.695C89.9141 145.985 88.8441 145.284 83.0167 146.361C80.634 146.85 77.1387 147.007 75.2879 146.787C72.357 146.388 71.3516 145.994 67.7227 143.616C64.1867 141.299 63.238 140.413 61.7187 137.963C59.1656 133.843 58.2611 129.744 58.829 125.024C59.2838 121.287 59.5689 120.548 62.0565 116.754C65.4097 111.741 67.8874 109.991 73.4963 108.639C77.5073 107.695 80.4968 107.802 84.7305 109.054C87.8213 110.021 89.1118 109.676 91.7229 107.418C96.1968 103.537 103.341 101.669 108.93 102.883C113.052 103.798 118.107 107.044 120.608 110.535Z" fill="#FAF7F5"/>
</g>
<defs>
<clipPath id="clip0_5401_182">
<rect width="173.009" height="145.985" fill="white" transform="matrix(0.836458 0.548031 -0.548321 0.836268 80.2266 0.890869)"/>
</clipPath>
</defs>
</svg>
