<svg width="167" height="60" viewBox="0 0 167 60" fill="none" xmlns="http://www.w3.org/2000/svg">
<g clip-path="url(#clip0_21_212)">
<path fill-rule="evenodd" clip-rule="evenodd" d="M152.658 20.7913C152.81 19.2205 153.278 17.6975 154.033 16.3159C154.27 15.8116 154.65 15.3903 155.126 15.1057C155.601 14.8212 156.149 14.6863 156.701 14.7183C157.229 14.761 157.73 14.9743 158.13 15.3269C158.529 15.6794 158.805 16.1524 158.918 16.676C159.341 18.1683 159.429 19.7375 159.173 21.2683C159.033 22.8503 158.572 24.3861 157.818 25.78C157.58 26.2764 157.201 26.6897 156.729 26.9672C156.257 27.2448 155.714 27.3739 155.169 27.3381C154.638 27.2934 154.136 27.0768 153.736 26.7205C153.337 26.3642 153.062 25.8871 152.952 25.3602C152.529 23.8765 152.429 22.3179 152.658 20.7913ZM166.904 21.8331C167.112 20.4386 167.023 19.0154 166.644 17.6583C166.265 16.3011 165.605 15.041 164.707 13.9618C163.79 12.8494 162.653 11.9438 161.369 11.3036C160.084 10.6634 158.681 10.3029 157.25 10.2453C154.279 9.98747 151.326 10.9203 149.029 12.8427C147.894 13.738 146.947 14.8528 146.243 16.1221C145.539 17.3913 145.092 18.7897 144.928 20.2354C144.721 21.6313 144.811 23.056 145.194 24.4136C145.576 25.7712 146.241 27.0305 147.145 28.1067C148.066 29.2183 149.207 30.123 150.494 30.763C151.782 31.403 153.187 31.7641 154.621 31.8232C157.603 32.1018 160.574 31.1748 162.882 29.2451C164.002 28.3379 164.934 27.2162 165.624 25.9443C166.314 24.6724 166.749 23.2753 166.904 21.8331ZM143.593 28.027C140.637 26.0558 138.792 23.7382 138.059 21.0741C141.407 19.4757 143.212 17.5577 143.475 15.3201C143.574 14.6847 143.537 14.0354 143.368 13.4153C143.199 12.7953 142.901 12.2189 142.494 11.7245C142.056 11.2346 141.515 10.8507 140.91 10.6016C140.306 10.3525 139.653 10.2444 139.002 10.2855C137.939 10.2827 136.9 10.6029 136.019 11.2048C135.645 11.3968 135.319 11.6734 135.067 12.013C134.815 12.3526 134.644 12.7462 134.567 13.1634L134.92 13.8023C135.18 14.2253 135.397 14.6739 135.568 15.1413C135.738 15.683 135.723 16.2665 135.528 16.7993C135.271 17.5161 134.78 18.1225 134.135 18.5178C133.361 19.0237 132.493 19.3638 131.585 19.5168L132.056 16.2402C132.196 15.4709 132.179 14.6809 132.007 13.9183C131.835 13.1557 131.511 12.4367 131.054 11.805C130.6 11.2558 130.024 10.8216 129.374 10.5371C128.723 10.2526 128.016 10.1256 127.309 10.1663C126.214 10.1799 125.143 10.4904 124.208 11.0654C123.362 11.4909 122.663 12.1671 122.207 13.0038C122.18 13.0495 122.164 13.1 122.157 13.1525C122.151 13.2049 122.156 13.2581 122.171 13.3087C122.186 13.3593 122.211 13.4062 122.244 13.4466C122.278 13.4871 122.319 13.5201 122.366 13.5436C122.575 13.6903 122.823 13.8568 123.111 14.0431C123.518 14.4711 123.761 15.0304 123.798 15.6222C123.972 16.7672 123.979 17.9317 123.818 19.0785L122.205 30.937V31.0176L122.323 31.0981H129.857C129.895 31.0866 129.929 31.0659 129.957 31.0378C129.985 31.0096 130.005 30.975 130.017 30.937L131.155 22.7459C131.27 22.7126 131.388 22.6925 131.508 22.6863C131.667 22.6726 131.783 22.6661 131.861 22.6661C131.861 22.7988 131.874 23.1119 131.901 23.6055C131.927 24.0991 131.947 24.4721 131.96 24.7246C131.973 24.9776 132.012 25.3704 132.078 25.9033C132.123 26.3286 132.203 26.7495 132.317 27.1617C132.408 27.4678 132.539 27.8543 132.709 28.321C132.846 28.7267 133.052 29.1052 133.317 29.4393C133.594 29.7622 133.889 30.0691 134.2 30.3585C134.54 30.6825 134.94 30.9338 135.378 31.0973C135.882 31.2772 136.401 31.412 136.928 31.5002C137.576 31.6095 138.234 31.6497 138.89 31.6202C140.661 31.4935 142.324 30.711 143.56 29.4224C143.819 29.2005 143.998 28.8987 144.071 28.5635C143.977 28.3338 143.809 28.1434 143.593 28.0237V28.027ZM118.359 22.9924C118.568 21.1544 119.144 17.1986 120.086 11.125V11.0445L119.968 10.9244H112.077L111.881 11.1661L110.547 22.1545C110.425 23.154 110.075 24.1113 109.526 24.9518C108.873 25.9911 108.193 26.4438 107.486 26.3101C106.779 26.1764 106.504 25.4037 106.662 23.9922L107.604 16.241C107.743 15.4643 107.711 14.6661 107.511 13.9032C107.311 13.1402 106.947 12.4311 106.446 11.826C105.949 11.2744 105.338 10.84 104.656 10.5534C103.975 10.2669 103.239 10.1353 102.502 10.1679C101.413 10.1798 100.348 10.4906 99.4208 11.067C98.5822 11.4965 97.8915 12.1722 97.4395 13.0055C97.3979 13.0761 97.383 13.1596 97.3977 13.2405C97.4123 13.3214 97.4555 13.3942 97.5191 13.4453C97.7014 13.582 97.8991 13.6961 98.1081 13.7853C98.4179 13.9504 98.676 14.1995 98.8534 14.5048C99.1329 14.9954 99.307 15.54 99.3643 16.1032C99.4672 17.0936 99.4538 18.0929 99.3244 19.0801L98.5784 25.3135C98.28 26.9694 98.6397 28.6774 99.5794 30.0669C99.9815 30.6479 100.519 31.1196 101.145 31.4402C101.771 31.7608 102.465 31.9203 103.166 31.9046C104.448 31.8734 105.697 31.4865 106.777 30.7864C108.133 29.909 109.264 28.7172 110.074 27.3099C110.106 28.5831 110.626 29.7938 111.525 30.6864C112.437 31.5175 113.635 31.955 114.861 31.9054C115.95 31.8932 117.015 31.5825 117.943 31.0063C118.781 30.577 119.472 29.9016 119.924 29.0687C119.951 29.026 119.969 28.9782 119.976 28.9283C119.984 28.8783 119.981 28.8273 119.968 28.7785C119.955 28.7297 119.933 28.6841 119.901 28.6446C119.87 28.6051 119.831 28.5726 119.787 28.549C119.591 28.4161 119.342 28.2356 119.041 28.0092C118.645 27.5906 118.403 27.048 118.354 26.4712C118.194 25.3161 118.196 24.1439 118.359 22.9892V22.9924ZM94.0665 1.13246C93.8679 1.23752 93.6776 1.35792 93.4974 1.49259C93.1312 1.74036 92.7515 1.96711 92.3601 2.17176C91.7846 2.44095 91.1777 2.63558 90.554 2.75103C89.696 2.92923 88.8199 3.0028 87.9446 2.97017C86.1434 2.87715 84.3551 2.60952 82.6046 2.17095C80.6212 1.69776 78.5977 1.41693 76.5616 1.33226H75.6585C72.1788 1.43968 69.6148 2.69168 67.9665 5.08824C67.1297 6.31338 66.7766 7.33899 66.9073 8.16506C66.9599 8.45832 67.0898 8.57836 67.2994 8.52438C67.576 8.37961 67.8444 8.21957 68.1036 8.04501C68.7751 7.65761 69.4945 7.36178 70.2428 7.16523C71.2917 6.88088 72.3746 6.7453 73.4604 6.7624C75.2361 6.81958 77.0029 7.04017 78.739 7.42143C80.6229 7.81029 82.5304 8.07057 84.4488 8.20051C88.9233 8.30793 91.9977 7.20229 93.6719 4.88361C94.0517 4.44637 94.3298 3.92879 94.4859 3.36879C94.642 2.8088 94.6722 2.22058 94.5742 1.64727C94.4716 1.19718 94.3024 1.02557 94.0665 1.13246ZM93.7134 22.9489L94.4586 16.7155C94.619 15.8984 94.6167 15.0571 94.4516 14.241C94.2866 13.4248 93.9622 12.6501 93.4974 11.9621C93.0891 11.3772 92.5441 10.9033 91.9108 10.5827C91.2776 10.262 90.5758 10.1046 89.8678 10.1244C88.5637 10.1636 87.2954 10.5644 86.2015 11.283C84.8149 12.1814 83.6745 13.4182 82.8851 14.8794C82.8254 13.5792 82.3028 12.3446 81.4138 11.403C81.0006 10.9843 80.5074 10.6551 79.9642 10.4352C79.4211 10.2154 78.8393 10.1097 78.2544 10.1244C76.9734 10.1632 75.7263 10.5498 74.6439 11.2435C73.2752 12.1058 72.1419 13.301 71.3475 14.7199C71.3155 13.45 70.8019 12.2412 69.9128 11.3434C68.9968 10.5063 67.791 10.0685 66.5574 10.1252C65.4629 10.1386 64.392 10.4491 63.457 11.0243C62.6153 11.4403 61.9276 12.118 61.4947 12.9579C61.4678 13.0006 61.45 13.0484 61.4423 13.0983C61.4347 13.1483 61.4374 13.1993 61.4503 13.2482C61.4632 13.2971 61.486 13.3427 61.5172 13.3822C61.5485 13.4216 61.5875 13.4541 61.6318 13.4776C61.8279 13.6108 62.0766 13.7907 62.3778 14.0174C62.7703 14.436 63.0062 14.9799 63.0449 15.5554C63.1901 16.71 63.1834 17.879 63.025 19.0318C62.8157 20.8692 62.2532 24.825 61.3377 30.8991V30.9797L61.4541 31.0981H69.3446C69.3957 31.0729 69.4424 31.0391 69.4824 30.9982C69.5011 30.9803 69.516 30.9587 69.5261 30.9347C69.5363 30.9107 69.5415 30.8849 69.5414 30.8589L70.835 20.1517C70.9623 19.0661 71.3096 18.0187 71.8552 17.0748C72.5353 16.0361 73.2157 15.5833 73.8963 15.7165C74.6551 15.8497 74.9426 16.6223 74.7587 18.0344C74.7056 18.7267 74.6012 19.6723 74.4455 20.8711C74.2096 22.6027 73.8172 25.946 73.2683 30.9008C73.262 30.9054 73.2569 30.9115 73.2534 30.9185C73.2499 30.9255 73.2481 30.9332 73.2481 30.941C73.2481 30.9489 73.2499 30.9566 73.2534 30.9636C73.2569 30.9706 73.262 30.9767 73.2683 30.9813L73.3854 31.0981H81.2759C81.3271 31.0728 81.3737 31.0391 81.4138 30.9982C81.4325 30.9803 81.4474 30.9587 81.4575 30.9347C81.4676 30.9107 81.4728 30.8849 81.4728 30.8589L82.375 20.8687L82.4547 20.1492C82.5497 19.0565 82.8996 18.002 83.4757 17.0724C84.1553 16.0337 84.8354 15.5809 85.5161 15.7141C86.2748 15.8473 86.5628 16.6199 86.38 18.032L85.438 25.7832C85.2986 26.56 85.33 27.3583 85.53 28.1214C85.73 28.8846 86.0937 29.5939 86.5952 30.199C87.0861 30.7479 87.6904 31.181 88.3653 31.4676C89.0402 31.7541 89.7692 31.8871 90.5006 31.8571C91.5951 31.8433 92.6658 31.5328 93.601 30.958C94.434 30.5465 95.1195 29.8831 95.5625 29.0598C95.6151 28.9927 95.6404 28.9077 95.6331 28.8224C95.6259 28.737 95.5866 28.6577 95.5234 28.6006C95.3461 28.4514 95.1475 28.33 94.9344 28.2405C94.6249 28.0755 94.3668 27.8266 94.1892 27.5218C93.9083 27.0303 93.7281 26.4867 93.6592 25.9234C93.5432 24.934 93.5614 23.9333 93.7134 22.9489ZM45.9529 20.7913C46.104 19.2201 46.5716 17.6968 47.3269 16.3151C47.5642 15.8108 47.9448 15.3895 48.4201 15.1049C48.8954 14.8203 49.4438 14.6855 49.9954 14.7175C50.5238 14.7602 51.0247 14.9735 51.424 15.3261C51.8232 15.6786 52.0998 16.1516 52.2127 16.6752C52.6354 18.1676 52.7226 19.7367 52.4677 21.2675C52.3273 22.8495 51.866 24.3853 51.1128 25.7792C50.8744 26.2755 50.4952 26.6888 50.0235 26.9663C49.5518 27.2439 49.0089 27.373 48.4643 27.3373C47.9333 27.2926 47.4307 27.0761 47.0311 26.7198C46.6316 26.3635 46.3563 25.8864 46.2462 25.3594C45.8242 23.8758 45.7241 22.3176 45.9529 20.7913ZM60.1988 21.8331C60.4058 20.4386 60.317 19.0155 59.9381 17.6584C59.5593 16.3013 58.8991 15.0411 58.0014 13.9618C57.0849 12.8494 55.9476 11.9438 54.6631 11.3036C53.3786 10.6634 51.9755 10.3029 50.5445 10.2453C47.5731 9.98747 44.6205 10.9203 42.3233 12.8427C41.1883 13.738 40.2412 14.8528 39.5372 16.1221C38.8331 17.3913 38.3862 18.7897 38.2226 20.2354C38.0154 21.6313 38.106 23.0559 38.4883 24.4135C38.8706 25.7711 39.5358 27.0304 40.4391 28.1067C41.3605 29.2183 42.5015 30.123 43.7889 30.763C45.0762 31.403 46.4817 31.7641 47.9151 31.8232C50.8977 32.1017 53.868 31.1747 56.1762 29.2451C57.296 28.3378 58.2277 27.2161 58.918 25.9442C59.6083 24.6723 60.0435 23.2752 60.1988 21.8331ZM37.0853 26.9087C35.952 26.45 34.9187 25.7712 34.0438 24.9107C33.2335 24.1476 32.5332 23.2733 31.9636 22.3132C31.473 21.4464 31.0593 20.5372 30.7274 19.5965C30.4703 18.9121 30.2542 18.2126 30.0803 17.5018C29.9878 17.0593 29.9286 16.7306 29.9025 16.5157C34.0624 14.4376 36.3778 11.5075 36.8485 7.72517C36.9734 6.96605 36.946 6.18932 36.768 5.44112C36.59 4.69292 36.265 3.98852 35.8124 3.36977C35.3726 2.78091 34.7974 2.30937 34.1366 1.99602C33.4758 1.68266 32.7493 1.53696 32.0202 1.57154C31.1786 1.57792 30.3461 1.74749 29.5678 2.07105C28.8808 2.32231 28.2432 2.69434 27.6844 3.16997C27.2524 3.56958 27.1151 3.86257 27.2724 4.04894C27.9157 4.95011 28.259 6.03463 28.2527 7.1459C28.2866 8.31514 28.0795 9.47872 27.6446 10.5627C27.2206 11.6175 26.5636 12.5603 25.7238 13.3189C24.9689 14.0526 23.9654 14.4673 22.9183 14.4782L24.3314 2.81064C24.3454 2.78615 24.3527 2.75836 24.3527 2.73008C24.3527 2.70179 24.3454 2.67401 24.3314 2.64951L24.2094 2.61004H24.1728L24.0931 2.57056C23.4124 2.30201 22.5816 2.01546 21.6008 1.71092C20.6199 1.40638 19.0894 1.04679 17.0092 0.632143C15.0841 0.236078 13.1266 0.0221912 11.1622 -0.00674438C9.24787 -0.00178861 7.35122 0.36406 5.56956 1.07203C3.76677 1.72072 2.21408 2.93087 1.13496 4.52831C0.507609 5.46239 0.123799 6.54151 0.0191297 7.66555C-0.0968474 8.836 0.078502 10.0172 0.529224 11.1017C0.981963 12.2277 1.75325 13.1937 2.74653 13.8788C3.61714 14.4998 4.61743 14.91 5.66999 15.0776C6.60301 15.2425 7.56024 15.2018 8.47629 14.9584C9.23629 14.7507 9.96794 14.4487 10.6545 14.0593C11.1847 13.7699 11.657 13.3836 12.0477 12.9201C12.3353 12.5904 12.5495 12.2022 12.6758 11.7817C12.7111 11.6835 12.7188 11.5774 12.6979 11.4751C12.6771 11.3729 12.6286 11.2784 12.5578 11.2024C12.4271 11.095 12.2047 10.9352 11.8907 10.723C11.6004 10.5319 11.3477 10.2879 11.1455 10.0036C10.8939 9.77852 10.6988 9.49636 10.576 9.18026C10.4532 8.86417 10.4064 8.52315 10.4393 8.1852C10.5194 7.52887 10.7624 6.90365 11.1455 6.36763C11.6117 5.75572 12.2572 5.30825 12.9898 5.08905C13.8757 4.79255 14.8232 4.73698 15.7371 4.92792C15.7111 5.19647 15.1487 9.25162 14.0498 17.0934C12.951 24.9351 12.3352 29.5376 12.2023 30.9008C12.1884 30.9253 12.181 30.953 12.181 30.9813C12.181 31.0096 12.1884 31.0374 12.2023 31.0619L12.3203 31.1022H20.6802C20.7089 31.1049 20.7379 31.102 20.7654 31.0934C20.7929 31.0849 20.8186 31.0709 20.8408 31.0524C20.863 31.0338 20.8814 31.011 20.8948 30.9853C20.9083 30.9595 20.9166 30.9314 20.9193 30.9024L22.3707 18.7554C22.9988 18.676 23.3651 18.6222 23.4698 18.5943C23.5479 20.8324 23.6276 22.2176 23.7089 22.7499C24.049 25.893 24.8991 28.277 26.2594 29.9017C27.6196 31.5265 29.6342 32.1925 32.3031 31.8998C33.4203 31.7701 34.4662 31.2796 35.2856 30.5012C36.0303 29.8662 36.6209 29.0668 37.0119 28.1647C37.2973 27.4047 37.3212 26.9847 37.0837 26.9047L37.0853 26.9087Z" fill="#F6A6BF"/>
</g>
<path d="M16.7294 56.2047C15.8867 56.2047 15.1294 56.018 14.4574 55.6447C13.7854 55.2714 13.2574 54.7594 12.8734 54.1087C12.5 53.4474 12.3134 52.7007 12.3134 51.8687C12.3134 51.0367 12.5 50.2954 12.8734 49.6447C13.2574 48.9834 13.7854 48.4714 14.4574 48.1087C15.1294 47.7354 15.8867 47.5487 16.7294 47.5487C17.572 47.5487 18.324 47.7354 18.9854 48.1087C19.6574 48.4714 20.18 48.9834 20.5534 49.6447C20.9374 50.2954 21.1294 51.0367 21.1294 51.8687C21.1294 52.7007 20.9374 53.4474 20.5534 54.1087C20.18 54.7594 19.6574 55.2714 18.9854 55.6447C18.324 56.018 17.572 56.2047 16.7294 56.2047ZM16.7294 54.8607C17.2734 54.8607 17.7587 54.738 18.1854 54.4927C18.6227 54.2367 18.964 53.8847 19.2094 53.4367C19.4547 52.978 19.5774 52.4554 19.5774 51.8687C19.5774 51.282 19.4547 50.7647 19.2094 50.3167C18.964 49.858 18.6227 49.506 18.1854 49.2607C17.7587 49.0154 17.2734 48.8927 16.7294 48.8927C16.1854 48.8927 15.6947 49.0154 15.2574 49.2607C14.8307 49.506 14.4894 49.858 14.2334 50.3167C13.988 50.7647 13.8654 51.282 13.8654 51.8687C13.8654 52.4554 13.988 52.978 14.2334 53.4367C14.4894 53.8847 14.8307 54.2367 15.2574 54.4927C15.6947 54.738 16.1854 54.8607 16.7294 54.8607ZM29.3549 48.9727H26.2509V56.1087H24.7149V48.9727H21.6109V47.6287H29.3549V48.9727ZM38.2145 51.9167C38.2145 52.034 38.2038 52.1887 38.1825 52.3807H31.3025C31.3985 53.1274 31.7238 53.73 32.2785 54.1887C32.8438 54.6367 33.5425 54.8607 34.3745 54.8607C35.3878 54.8607 36.2038 54.5194 36.8225 53.8367L37.6705 54.8287C37.2865 55.2767 36.8065 55.618 36.2305 55.8527C35.6652 56.0874 35.0305 56.2047 34.3265 56.2047C33.4305 56.2047 32.6358 56.0234 31.9425 55.6607C31.2492 55.2874 30.7105 54.77 30.3265 54.1087C29.9532 53.4474 29.7665 52.7007 29.7665 51.8687C29.7665 51.0474 29.9478 50.306 30.3105 49.6447C30.6838 48.9834 31.1905 48.4714 31.8305 48.1087C32.4812 47.7354 33.2118 47.5487 34.0225 47.5487C34.8332 47.5487 35.5532 47.7354 36.1825 48.1087C36.8225 48.4714 37.3185 48.9834 37.6705 49.6447C38.0332 50.306 38.2145 51.0634 38.2145 51.9167ZM34.0225 48.8447C33.2865 48.8447 32.6678 49.0687 32.1665 49.5167C31.6758 49.9647 31.3878 50.5514 31.3025 51.2767H36.7425C36.6572 50.562 36.3638 49.9807 35.8625 49.5327C35.3718 49.074 34.7585 48.8447 34.0225 48.8447ZM47.7368 47.6287V56.1087H46.2008V48.9727H42.5528L42.4568 50.8607C42.4034 52.002 42.3021 52.9567 42.1528 53.7247C42.0034 54.482 41.7581 55.09 41.4168 55.5487C41.0754 56.0074 40.6008 56.2367 39.9928 56.2367C39.7154 56.2367 39.4008 56.1887 39.0488 56.0927L39.1448 54.7967C39.2834 54.8287 39.4114 54.8447 39.5288 54.8447C39.9554 54.8447 40.2754 54.658 40.4888 54.2847C40.7021 53.9114 40.8408 53.4687 40.9048 52.9567C40.9688 52.4447 41.0274 51.714 41.0807 50.7647L41.2248 47.6287H47.7368ZM54.6268 50.5087C55.7041 50.5194 56.5254 50.7647 57.0908 51.2447C57.6561 51.7247 57.9388 52.402 57.9388 53.2767C57.9388 54.194 57.6294 54.9034 57.0108 55.4047C56.4028 55.8954 55.5281 56.1354 54.3868 56.1247L50.7068 56.1087V47.6287H52.2428V50.4927L54.6268 50.5087ZM54.2588 54.9567C54.9521 54.9674 55.4748 54.8287 55.8268 54.5407C56.1894 54.2527 56.3708 53.826 56.3708 53.2607C56.3708 52.706 56.1948 52.3007 55.8428 52.0447C55.5014 51.7887 54.9734 51.6554 54.2588 51.6447L52.2428 51.6127V54.9407L54.2588 54.9567ZM72.8308 54.7647V58.0767H71.3908V56.1087H64.3028V58.0767H62.8468V54.7647H63.2948C63.8388 54.7327 64.2121 54.3487 64.4148 53.6127C64.6174 52.8767 64.7561 51.8367 64.8307 50.4927L64.9588 47.6287H71.5347V54.7647H72.8308ZM66.2388 50.6047C66.1961 51.6714 66.1054 52.5567 65.9668 53.2607C65.8388 53.954 65.5988 54.4554 65.2468 54.7647H69.9988V48.9727H66.3188L66.2388 50.6047ZM82.1118 47.6287V56.1087H80.5758V48.9727H76.9278L76.8318 50.8607C76.7784 52.002 76.6771 52.9567 76.5278 53.7247C76.3784 54.482 76.1331 55.09 75.7918 55.5487C75.4504 56.0074 74.9758 56.2367 74.3678 56.2367C74.0904 56.2367 73.7758 56.1887 73.4238 56.0927L73.5198 54.7967C73.6584 54.8287 73.7864 54.8447 73.9038 54.8447C74.3304 54.8447 74.6504 54.658 74.8638 54.2847C75.0771 53.9114 75.2158 53.4687 75.2798 52.9567C75.3438 52.4447 75.4024 51.714 75.4557 50.7647L75.5998 47.6287H82.1118ZM91.8818 47.6287V56.1087H90.5058V53.4207H88.0418H87.8658L86.0098 56.1087H84.3618L86.4258 53.2127C85.7858 53.0207 85.2951 52.706 84.9538 52.2687C84.6124 51.8207 84.4418 51.266 84.4418 50.6047C84.4418 49.634 84.7724 48.898 85.4338 48.3967C86.0951 47.8847 87.0071 47.6287 88.1698 47.6287H91.8818ZM86.0098 50.6527C86.0098 51.218 86.1858 51.6394 86.5378 51.9167C86.9004 52.1834 87.4391 52.3167 88.1538 52.3167H90.5058V48.9727H88.2178C86.7458 48.9727 86.0098 49.5327 86.0098 50.6527ZM102.472 52.5247H100.712V56.1087H99.1755V47.6287H100.712V51.2127H102.504L105.256 47.6287H106.904L103.688 51.7087L107.128 56.1087H105.32L102.472 52.5247ZM112.089 56.2047C111.246 56.2047 110.489 56.018 109.817 55.6447C109.145 55.2714 108.617 54.7594 108.233 54.1087C107.859 53.4474 107.673 52.7007 107.673 51.8687C107.673 51.0367 107.859 50.2954 108.233 49.6447C108.617 48.9834 109.145 48.4714 109.817 48.1087C110.489 47.7354 111.246 47.5487 112.089 47.5487C112.931 47.5487 113.683 47.7354 114.345 48.1087C115.017 48.4714 115.539 48.9834 115.913 49.6447C116.297 50.2954 116.489 51.0367 116.489 51.8687C116.489 52.7007 116.297 53.4474 115.913 54.1087C115.539 54.7594 115.017 55.2714 114.345 55.6447C113.683 56.018 112.931 56.2047 112.089 56.2047ZM112.089 54.8607C112.633 54.8607 113.118 54.738 113.545 54.4927C113.982 54.2367 114.323 53.8847 114.569 53.4367C114.814 52.978 114.937 52.4554 114.937 51.8687C114.937 51.282 114.814 50.7647 114.569 50.3167C114.323 49.858 113.982 49.506 113.545 49.2607C113.118 49.0154 112.633 48.8927 112.089 48.8927C111.545 48.8927 111.054 49.0154 110.617 49.2607C110.19 49.506 109.849 49.858 109.593 50.3167C109.347 50.7647 109.225 51.282 109.225 51.8687C109.225 52.4554 109.347 52.978 109.593 53.4367C109.849 53.8847 110.19 54.2367 110.617 54.4927C111.054 54.738 111.545 54.8607 112.089 54.8607ZM124.714 48.9727H121.61V56.1087H120.074V48.9727H116.97V47.6287H124.714V48.9727ZM126.285 47.6287H127.821V53.8047L133.021 47.6287H134.413V56.1087H132.877V49.9327L127.693 56.1087H126.285V47.6287ZM140.69 52.5247H138.93V56.1087H137.394V47.6287H138.93V51.2127H140.722L143.474 47.6287H145.122L141.906 51.7087L145.346 56.1087H143.538L140.69 52.5247ZM150.308 56.2047C149.465 56.2047 148.708 56.018 148.036 55.6447C147.364 55.2714 146.836 54.7594 146.452 54.1087C146.078 53.4474 145.892 52.7007 145.892 51.8687C145.892 51.0367 146.078 50.2954 146.452 49.6447C146.836 48.9834 147.364 48.4714 148.036 48.1087C148.708 47.7354 149.465 47.5487 150.308 47.5487C151.15 47.5487 151.902 47.7354 152.564 48.1087C153.236 48.4714 153.758 48.9834 154.132 49.6447C154.516 50.2954 154.708 51.0367 154.708 51.8687C154.708 52.7007 154.516 53.4474 154.132 54.1087C153.758 54.7594 153.236 55.2714 152.564 55.6447C151.902 56.018 151.15 56.2047 150.308 56.2047ZM150.308 54.8607C150.852 54.8607 151.337 54.738 151.764 54.4927C152.201 54.2367 152.542 53.8847 152.788 53.4367C153.033 52.978 153.156 52.4554 153.156 51.8687C153.156 51.282 153.033 50.7647 152.788 50.3167C152.542 49.858 152.201 49.506 151.764 49.2607C151.337 49.0154 150.852 48.8927 150.308 48.8927C149.764 48.8927 149.273 49.0154 148.836 49.2607C148.409 49.506 148.068 49.858 147.812 50.3167C147.566 50.7647 147.444 51.282 147.444 51.8687C147.444 52.4554 147.566 52.978 147.812 53.4367C148.068 53.8847 148.409 54.2367 148.836 54.4927C149.273 54.738 149.764 54.8607 150.308 54.8607ZM162.702 51.7087C163.8 51.986 164.35 52.674 164.35 53.7727C164.35 54.5194 164.067 55.0954 163.502 55.5007C162.947 55.906 162.115 56.1087 161.006 56.1087H156.926V47.6287H160.862C161.864 47.6287 162.648 47.8207 163.214 48.2047C163.779 48.578 164.062 49.1114 164.062 49.8047C164.062 50.2527 163.939 50.642 163.694 50.9727C163.459 51.2927 163.128 51.538 162.702 51.7087ZM158.43 51.2767H160.734C161.32 51.2767 161.763 51.17 162.062 50.9567C162.371 50.7434 162.526 50.434 162.526 50.0287C162.526 49.218 161.928 48.8127 160.734 48.8127H158.43V51.2767ZM160.894 54.9247C161.534 54.9247 162.014 54.8234 162.334 54.6207C162.654 54.418 162.814 54.1034 162.814 53.6767C162.814 53.2394 162.664 52.914 162.366 52.7007C162.078 52.4874 161.619 52.3807 160.99 52.3807H158.43V54.9247H160.894Z" fill="#F6A6BF"/>
<defs>
<clipPath id="clip0_21_212">
<rect width="167" height="35.2174" fill="white"/>
</clipPath>
</defs>
</svg>
